<svg xmlns="http://www.w3.org/2000/svg" xmlns:xlink="http://www.w3.org/1999/xlink" width="348" height="388" viewBox="0 0 348 388" role="img" aria-label="Github Widgets"><!-- Created By GitHub Widgets - Authored by cyrus2281 --><defs><style> .qr-title { opacity: 0; animation: qrFadeIn 0.5s ease-out 0.1s forwards; } @keyframes qrLogoSpin { 0% { transform: rotateY(0deg); } 100% { transform: rotateY(360deg); } } .qr-logo { animation: qrLogoSpin 3s linear infinite; transform-origin: 174.00px 214.00px; } @keyframes qrFadeIn { 0% { opacity: 0; } 100% { opacity: 1; } } </style></defs><rect width="348" height="388" rx="16" fill="#0f1724" stroke="#1e293b" stroke-width="1"/><text class="qr-title" x="174" y="50" text-anchor="middle" fill="#fe428e" font-family="'Segoe UI',Roboto,sans-serif" font-size="22" font-weight="700">Github Widgets</text><path d="M38.63,78.63h7.32v7.32h-7.32ZM45.95,78.63h7.32v7.32h-7.32ZM53.27,78.63h7.32v7.32h-7.32ZM60.59,78.63h7.32v7.32h-7.32ZM67.90,78.63h7.32v7.32h-7.32ZM75.22,78.63h7.32v7.32h-7.32ZM82.54,78.63h7.32v7.32h-7.32ZM111.80,78.63h7.32v7.32h-7.32ZM126.44,78.63h7.32v7.32h-7.32ZM133.76,78.63h7.32v7.32h-7.32ZM141.07,78.63h7.32v7.32h-7.32ZM155.71,78.63h7.32v7.32h-7.32ZM184.98,78.63h7.32v7.32h-7.32ZM192.29,78.63h7.32v7.32h-7.32ZM199.61,78.63h7.32v7.32h-7.32ZM214.24,78.63h7.32v7.32h-7.32ZM228.88,78.63h7.32v7.32h-7.32ZM243.51,78.63h7.32v7.32h-7.32ZM258.15,78.63h7.32v7.32h-7.32ZM265.46,78.63h7.32v7.32h-7.32ZM272.78,78.63h7.32v7.32h-7.32ZM280.10,78.63h7.32v7.32h-7.32ZM287.41,78.63h7.32v7.32h-7.32ZM294.73,78.63h7.32v7.32h-7.32ZM302.05,78.63h7.32v7.32h-7.32ZM38.63,85.95h7.32v7.32h-7.32ZM82.54,85.95h7.32v7.32h-7.32ZM104.49,85.95h7.32v7.32h-7.32ZM111.80,85.95h7.32v7.32h-7.32ZM119.12,85.95h7.32v7.32h-7.32ZM141.07,85.95h7.32v7.32h-7.32ZM148.39,85.95h7.32v7.32h-7.32ZM155.71,85.95h7.32v7.32h-7.32ZM170.34,85.95h7.32v7.32h-7.32ZM184.98,85.95h7.32v7.32h-7.32ZM214.24,85.95h7.32v7.32h-7.32ZM243.51,85.95h7.32v7.32h-7.32ZM258.15,85.95h7.32v7.32h-7.32ZM302.05,85.95h7.32v7.32h-7.32ZM38.63,93.27h7.32v7.32h-7.32ZM53.27,93.27h7.32v7.32h-7.32ZM60.59,93.27h7.32v7.32h-7.32ZM67.90,93.27h7.32v7.32h-7.32ZM82.54,93.27h7.32v7.32h-7.32ZM97.17,93.27h7.32v7.32h-7.32ZM104.49,93.27h7.32v7.32h-7.32ZM119.12,93.27h7.32v7.32h-7.32ZM126.44,93.27h7.32v7.32h-7.32ZM133.76,93.27h7.32v7.32h-7.32ZM141.07,93.27h7.32v7.32h-7.32ZM148.39,93.27h7.32v7.32h-7.32ZM155.71,93.27h7.32v7.32h-7.32ZM163.02,93.27h7.32v7.32h-7.32ZM177.66,93.27h7.32v7.32h-7.32ZM184.98,93.27h7.32v7.32h-7.32ZM199.61,93.27h7.32v7.32h-7.32ZM221.56,93.27h7.32v7.32h-7.32ZM228.88,93.27h7.32v7.32h-7.32ZM236.20,93.27h7.32v7.32h-7.32ZM258.15,93.27h7.32v7.32h-7.32ZM272.78,93.27h7.32v7.32h-7.32ZM280.10,93.27h7.32v7.32h-7.32ZM287.41,93.27h7.32v7.32h-7.32ZM302.05,93.27h7.32v7.32h-7.32ZM38.63,100.59h7.32v7.32h-7.32ZM53.27,100.59h7.32v7.32h-7.32ZM60.59,100.59h7.32v7.32h-7.32ZM67.90,100.59h7.32v7.32h-7.32ZM82.54,100.59h7.32v7.32h-7.32ZM97.17,100.59h7.32v7.32h-7.32ZM104.49,100.59h7.32v7.32h-7.32ZM126.44,100.59h7.32v7.32h-7.32ZM141.07,100.59h7.32v7.32h-7.32ZM155.71,100.59h7.32v7.32h-7.32ZM163.02,100.59h7.32v7.32h-7.32ZM170.34,100.59h7.32v7.32h-7.32ZM177.66,100.59h7.32v7.32h-7.32ZM184.98,100.59h7.32v7.32h-7.32ZM192.29,100.59h7.32v7.32h-7.32ZM199.61,100.59h7.32v7.32h-7.32ZM214.24,100.59h7.32v7.32h-7.32ZM221.56,100.59h7.32v7.32h-7.32ZM236.20,100.59h7.32v7.32h-7.32ZM243.51,100.59h7.32v7.32h-7.32ZM258.15,100.59h7.32v7.32h-7.32ZM272.78,100.59h7.32v7.32h-7.32ZM280.10,100.59h7.32v7.32h-7.32ZM287.41,100.59h7.32v7.32h-7.32ZM302.05,100.59h7.32v7.32h-7.32ZM38.63,107.90h7.32v7.32h-7.32ZM53.27,107.90h7.32v7.32h-7.32ZM60.59,107.90h7.32v7.32h-7.32ZM67.90,107.90h7.32v7.32h-7.32ZM82.54,107.90h7.32v7.32h-7.32ZM104.49,107.90h7.32v7.32h-7.32ZM119.12,107.90h7.32v7.32h-7.32ZM126.44,107.90h7.32v7.32h-7.32ZM133.76,107.90h7.32v7.32h-7.32ZM141.07,107.90h7.32v7.32h-7.32ZM155.71,107.90h7.32v7.32h-7.32ZM177.66,107.90h7.32v7.32h-7.32ZM192.29,107.90h7.32v7.32h-7.32ZM199.61,107.90h7.32v7.32h-7.32ZM206.93,107.90h7.32v7.32h-7.32ZM214.24,107.90h7.32v7.32h-7.32ZM228.88,107.90h7.32v7.32h-7.32ZM258.15,107.90h7.32v7.32h-7.32ZM272.78,107.90h7.32v7.32h-7.32ZM280.10,107.90h7.32v7.32h-7.32ZM287.41,107.90h7.32v7.32h-7.32ZM302.05,107.90h7.32v7.32h-7.32ZM38.63,115.22h7.32v7.32h-7.32ZM82.54,115.22h7.32v7.32h-7.32ZM104.49,115.22h7.32v7.32h-7.32ZM111.80,115.22h7.32v7.32h-7.32ZM126.44,115.22h7.32v7.32h-7.32ZM141.07,115.22h7.32v7.32h-7.32ZM163.02,115.22h7.32v7.32h-7.32ZM184.98,115.22h7.32v7.32h-7.32ZM192.29,115.22h7.32v7.32h-7.32ZM206.93,115.22h7.32v7.32h-7.32ZM228.88,115.22h7.32v7.32h-7.32ZM258.15,115.22h7.32v7.32h-7.32ZM302.05,115.22h7.32v7.32h-7.32ZM38.63,122.54h7.32v7.32h-7.32ZM45.95,122.54h7.32v7.32h-7.32ZM53.27,122.54h7.32v7.32h-7.32ZM60.59,122.54h7.32v7.32h-7.32ZM67.90,122.54h7.32v7.32h-7.32ZM75.22,122.54h7.32v7.32h-7.32ZM82.54,122.54h7.32v7.32h-7.32ZM97.17,122.54h7.32v7.32h-7.32ZM111.80,122.54h7.32v7.32h-7.32ZM126.44,122.54h7.32v7.32h-7.32ZM141.07,122.54h7.32v7.32h-7.32ZM155.71,122.54h7.32v7.32h-7.32ZM170.34,122.54h7.32v7.32h-7.32ZM184.98,122.54h7.32v7.32h-7.32ZM199.61,122.54h7.32v7.32h-7.32ZM214.24,122.54h7.32v7.32h-7.32ZM228.88,122.54h7.32v7.32h-7.32ZM243.51,122.54h7.32v7.32h-7.32ZM258.15,122.54h7.32v7.32h-7.32ZM265.46,122.54h7.32v7.32h-7.32ZM272.78,122.54h7.32v7.32h-7.32ZM280.10,122.54h7.32v7.32h-7.32ZM287.41,122.54h7.32v7.32h-7.32ZM294.73,122.54h7.32v7.32h-7.32ZM302.05,122.54h7.32v7.32h-7.32ZM119.12,129.85h7.32v7.32h-7.32ZM133.76,129.85h7.32v7.32h-7.32ZM141.07,129.85h7.32v7.32h-7.32ZM155.71,129.85h7.32v7.32h-7.32ZM163.02,129.85h7.32v7.32h-7.32ZM170.34,129.85h7.32v7.32h-7.32ZM184.98,129.85h7.32v7.32h-7.32ZM206.93,129.85h7.32v7.32h-7.32ZM221.56,129.85h7.32v7.32h-7.32ZM236.20,129.85h7.32v7.32h-7.32ZM243.51,129.85h7.32v7.32h-7.32ZM60.59,137.17h7.32v7.32h-7.32ZM67.90,137.17h7.32v7.32h-7.32ZM82.54,137.17h7.32v7.32h-7.32ZM89.85,137.17h7.32v7.32h-7.32ZM104.49,137.17h7.32v7.32h-7.32ZM111.80,137.17h7.32v7.32h-7.32ZM119.12,137.17h7.32v7.32h-7.32ZM133.76,137.17h7.32v7.32h-7.32ZM141.07,137.17h7.32v7.32h-7.32ZM155.71,137.17h7.32v7.32h-7.32ZM163.02,137.17h7.32v7.32h-7.32ZM170.34,137.17h7.32v7.32h-7.32ZM199.61,137.17h7.32v7.32h-7.32ZM206.93,137.17h7.32v7.32h-7.32ZM228.88,137.17h7.32v7.32h-7.32ZM243.51,137.17h7.32v7.32h-7.32ZM280.10,137.17h7.32v7.32h-7.32ZM287.41,137.17h7.32v7.32h-7.32ZM45.95,144.49h7.32v7.32h-7.32ZM53.27,144.49h7.32v7.32h-7.32ZM67.90,144.49h7.32v7.32h-7.32ZM75.22,144.49h7.32v7.32h-7.32ZM97.17,144.49h7.32v7.32h-7.32ZM141.07,144.49h7.32v7.32h-7.32ZM148.39,144.49h7.32v7.32h-7.32ZM170.34,144.49h7.32v7.32h-7.32ZM184.98,144.49h7.32v7.32h-7.32ZM192.29,144.49h7.32v7.32h-7.32ZM199.61,144.49h7.32v7.32h-7.32ZM206.93,144.49h7.32v7.32h-7.32ZM221.56,144.49h7.32v7.32h-7.32ZM236.20,144.49h7.32v7.32h-7.32ZM265.46,144.49h7.32v7.32h-7.32ZM272.78,144.49h7.32v7.32h-7.32ZM280.10,144.49h7.32v7.32h-7.32ZM287.41,144.49h7.32v7.32h-7.32ZM294.73,144.49h7.32v7.32h-7.32ZM45.95,151.80h7.32v7.32h-7.32ZM53.27,151.80h7.32v7.32h-7.32ZM60.59,151.80h7.32v7.32h-7.32ZM75.22,151.80h7.32v7.32h-7.32ZM82.54,151.80h7.32v7.32h-7.32ZM97.17,151.80h7.32v7.32h-7.32ZM126.44,151.80h7.32v7.32h-7.32ZM133.76,151.80h7.32v7.32h-7.32ZM141.07,151.80h7.32v7.32h-7.32ZM163.02,151.80h7.32v7.32h-7.32ZM177.66,151.80h7.32v7.32h-7.32ZM184.98,151.80h7.32v7.32h-7.32ZM192.29,151.80h7.32v7.32h-7.32ZM206.93,151.80h7.32v7.32h-7.32ZM214.24,151.80h7.32v7.32h-7.32ZM221.56,151.80h7.32v7.32h-7.32ZM236.20,151.80h7.32v7.32h-7.32ZM243.51,151.80h7.32v7.32h-7.32ZM250.83,151.80h7.32v7.32h-7.32ZM258.15,151.80h7.32v7.32h-7.32ZM265.46,151.80h7.32v7.32h-7.32ZM302.05,151.80h7.32v7.32h-7.32ZM38.63,159.12h7.32v7.32h-7.32ZM53.27,159.12h7.32v7.32h-7.32ZM60.59,159.12h7.32v7.32h-7.32ZM67.90,159.12h7.32v7.32h-7.32ZM97.17,159.12h7.32v7.32h-7.32ZM119.12,159.12h7.32v7.32h-7.32ZM126.44,159.12h7.32v7.32h-7.32ZM133.76,159.12h7.32v7.32h-7.32ZM141.07,159.12h7.32v7.32h-7.32ZM155.71,159.12h7.32v7.32h-7.32ZM228.88,159.12h7.32v7.32h-7.32ZM236.20,159.12h7.32v7.32h-7.32ZM250.83,159.12h7.32v7.32h-7.32ZM258.15,159.12h7.32v7.32h-7.32ZM265.46,159.12h7.32v7.32h-7.32ZM280.10,159.12h7.32v7.32h-7.32ZM287.41,159.12h7.32v7.32h-7.32ZM294.73,159.12h7.32v7.32h-7.32ZM38.63,166.44h7.32v7.32h-7.32ZM45.95,166.44h7.32v7.32h-7.32ZM60.59,166.44h7.32v7.32h-7.32ZM75.22,166.44h7.32v7.32h-7.32ZM82.54,166.44h7.32v7.32h-7.32ZM104.49,166.44h7.32v7.32h-7.32ZM111.80,166.44h7.32v7.32h-7.32ZM126.44,166.44h7.32v7.32h-7.32ZM141.07,166.44h7.32v7.32h-7.32ZM155.71,166.44h7.32v7.32h-7.32ZM163.02,166.44h7.32v7.32h-7.32ZM177.66,166.44h7.32v7.32h-7.32ZM184.98,166.44h7.32v7.32h-7.32ZM206.93,166.44h7.32v7.32h-7.32ZM236.20,166.44h7.32v7.32h-7.32ZM243.51,166.44h7.32v7.32h-7.32ZM258.15,166.44h7.32v7.32h-7.32ZM280.10,166.44h7.32v7.32h-7.32ZM294.73,166.44h7.32v7.32h-7.32ZM302.05,166.44h7.32v7.32h-7.32ZM38.63,173.76h7.32v7.32h-7.32ZM45.95,173.76h7.32v7.32h-7.32ZM53.27,173.76h7.32v7.32h-7.32ZM67.90,173.76h7.32v7.32h-7.32ZM97.17,173.76h7.32v7.32h-7.32ZM104.49,173.76h7.32v7.32h-7.32ZM119.12,173.76h7.32v7.32h-7.32ZM126.44,173.76h7.32v7.32h-7.32ZM141.07,173.76h7.32v7.32h-7.32ZM148.39,173.76h7.32v7.32h-7.32ZM155.71,173.76h7.32v7.32h-7.32ZM170.34,173.76h7.32v7.32h-7.32ZM177.66,173.76h7.32v7.32h-7.32ZM184.98,173.76h7.32v7.32h-7.32ZM199.61,173.76h7.32v7.32h-7.32ZM206.93,173.76h7.32v7.32h-7.32ZM228.88,173.76h7.32v7.32h-7.32ZM236.20,173.76h7.32v7.32h-7.32ZM250.83,173.76h7.32v7.32h-7.32ZM265.46,173.76h7.32v7.32h-7.32ZM272.78,173.76h7.32v7.32h-7.32ZM287.41,173.76h7.32v7.32h-7.32ZM38.63,181.07h7.32v7.32h-7.32ZM53.27,181.07h7.32v7.32h-7.32ZM67.90,181.07h7.32v7.32h-7.32ZM82.54,181.07h7.32v7.32h-7.32ZM89.85,181.07h7.32v7.32h-7.32ZM126.44,181.07h7.32v7.32h-7.32ZM133.76,181.07h7.32v7.32h-7.32ZM141.07,181.07h7.32v7.32h-7.32ZM148.39,181.07h7.32v7.32h-7.32ZM155.71,181.07h7.32v7.32h-7.32ZM163.02,181.07h7.32v7.32h-7.32ZM170.34,181.07h7.32v7.32h-7.32ZM177.66,181.07h7.32v7.32h-7.32ZM206.93,181.07h7.32v7.32h-7.32ZM214.24,181.07h7.32v7.32h-7.32ZM228.88,181.07h7.32v7.32h-7.32ZM236.20,181.07h7.32v7.32h-7.32ZM250.83,181.07h7.32v7.32h-7.32ZM265.46,181.07h7.32v7.32h-7.32ZM272.78,181.07h7.32v7.32h-7.32ZM280.10,181.07h7.32v7.32h-7.32ZM287.41,181.07h7.32v7.32h-7.32ZM294.73,181.07h7.32v7.32h-7.32ZM302.05,181.07h7.32v7.32h-7.32ZM45.95,188.39h7.32v7.32h-7.32ZM53.27,188.39h7.32v7.32h-7.32ZM67.90,188.39h7.32v7.32h-7.32ZM97.17,188.39h7.32v7.32h-7.32ZM111.80,188.39h7.32v7.32h-7.32ZM119.12,188.39h7.32v7.32h-7.32ZM126.44,188.39h7.32v7.32h-7.32ZM148.39,188.39h7.32v7.32h-7.32ZM155.71,188.39h7.32v7.32h-7.32ZM170.34,188.39h7.32v7.32h-7.32ZM199.61,188.39h7.32v7.32h-7.32ZM243.51,188.39h7.32v7.32h-7.32ZM272.78,188.39h7.32v7.32h-7.32ZM280.10,188.39h7.32v7.32h-7.32ZM287.41,188.39h7.32v7.32h-7.32ZM302.05,188.39h7.32v7.32h-7.32ZM45.95,195.71h7.32v7.32h-7.32ZM53.27,195.71h7.32v7.32h-7.32ZM75.22,195.71h7.32v7.32h-7.32ZM82.54,195.71h7.32v7.32h-7.32ZM89.85,195.71h7.32v7.32h-7.32ZM97.17,195.71h7.32v7.32h-7.32ZM126.44,195.71h7.32v7.32h-7.32ZM133.76,195.71h7.32v7.32h-7.32ZM163.02,195.71h7.32v7.32h-7.32ZM184.98,195.71h7.32v7.32h-7.32ZM192.29,195.71h7.32v7.32h-7.32ZM221.56,195.71h7.32v7.32h-7.32ZM236.20,195.71h7.32v7.32h-7.32ZM258.15,195.71h7.32v7.32h-7.32ZM287.41,195.71h7.32v7.32h-7.32ZM302.05,195.71h7.32v7.32h-7.32ZM45.95,203.02h7.32v7.32h-7.32ZM53.27,203.02h7.32v7.32h-7.32ZM67.90,203.02h7.32v7.32h-7.32ZM89.85,203.02h7.32v7.32h-7.32ZM104.49,203.02h7.32v7.32h-7.32ZM126.44,203.02h7.32v7.32h-7.32ZM133.76,203.02h7.32v7.32h-7.32ZM148.39,203.02h7.32v7.32h-7.32ZM155.71,203.02h7.32v7.32h-7.32ZM163.02,203.02h7.32v7.32h-7.32ZM177.66,203.02h7.32v7.32h-7.32ZM184.98,203.02h7.32v7.32h-7.32ZM192.29,203.02h7.32v7.32h-7.32ZM199.61,203.02h7.32v7.32h-7.32ZM236.20,203.02h7.32v7.32h-7.32ZM250.83,203.02h7.32v7.32h-7.32ZM294.73,203.02h7.32v7.32h-7.32ZM45.95,210.34h7.32v7.32h-7.32ZM53.27,210.34h7.32v7.32h-7.32ZM67.90,210.34h7.32v7.32h-7.32ZM75.22,210.34h7.32v7.32h-7.32ZM82.54,210.34h7.32v7.32h-7.32ZM89.85,210.34h7.32v7.32h-7.32ZM119.12,210.34h7.32v7.32h-7.32ZM126.44,210.34h7.32v7.32h-7.32ZM148.39,210.34h7.32v7.32h-7.32ZM177.66,210.34h7.32v7.32h-7.32ZM184.98,210.34h7.32v7.32h-7.32ZM214.24,210.34h7.32v7.32h-7.32ZM236.20,210.34h7.32v7.32h-7.32ZM250.83,210.34h7.32v7.32h-7.32ZM258.15,210.34h7.32v7.32h-7.32ZM265.46,210.34h7.32v7.32h-7.32ZM280.10,210.34h7.32v7.32h-7.32ZM287.41,210.34h7.32v7.32h-7.32ZM302.05,210.34h7.32v7.32h-7.32ZM45.95,217.66h7.32v7.32h-7.32ZM53.27,217.66h7.32v7.32h-7.32ZM60.59,217.66h7.32v7.32h-7.32ZM75.22,217.66h7.32v7.32h-7.32ZM89.85,217.66h7.32v7.32h-7.32ZM97.17,217.66h7.32v7.32h-7.32ZM119.12,217.66h7.32v7.32h-7.32ZM126.44,217.66h7.32v7.32h-7.32ZM133.76,217.66h7.32v7.32h-7.32ZM148.39,217.66h7.32v7.32h-7.32ZM163.02,217.66h7.32v7.32h-7.32ZM177.66,217.66h7.32v7.32h-7.32ZM192.29,217.66h7.32v7.32h-7.32ZM206.93,217.66h7.32v7.32h-7.32ZM214.24,217.66h7.32v7.32h-7.32ZM221.56,217.66h7.32v7.32h-7.32ZM236.20,217.66h7.32v7.32h-7.32ZM243.51,217.66h7.32v7.32h-7.32ZM265.46,217.66h7.32v7.32h-7.32ZM272.78,217.66h7.32v7.32h-7.32ZM280.10,217.66h7.32v7.32h-7.32ZM294.73,217.66h7.32v7.32h-7.32ZM38.63,224.98h7.32v7.32h-7.32ZM67.90,224.98h7.32v7.32h-7.32ZM82.54,224.98h7.32v7.32h-7.32ZM97.17,224.98h7.32v7.32h-7.32ZM104.49,224.98h7.32v7.32h-7.32ZM111.80,224.98h7.32v7.32h-7.32ZM119.12,224.98h7.32v7.32h-7.32ZM126.44,224.98h7.32v7.32h-7.32ZM141.07,224.98h7.32v7.32h-7.32ZM148.39,224.98h7.32v7.32h-7.32ZM155.71,224.98h7.32v7.32h-7.32ZM163.02,224.98h7.32v7.32h-7.32ZM170.34,224.98h7.32v7.32h-7.32ZM177.66,224.98h7.32v7.32h-7.32ZM184.98,224.98h7.32v7.32h-7.32ZM192.29,224.98h7.32v7.32h-7.32ZM199.61,224.98h7.32v7.32h-7.32ZM206.93,224.98h7.32v7.32h-7.32ZM214.24,224.98h7.32v7.32h-7.32ZM228.88,224.98h7.32v7.32h-7.32ZM243.51,224.98h7.32v7.32h-7.32ZM258.15,224.98h7.32v7.32h-7.32ZM272.78,224.98h7.32v7.32h-7.32ZM38.63,232.29h7.32v7.32h-7.32ZM53.27,232.29h7.32v7.32h-7.32ZM75.22,232.29h7.32v7.32h-7.32ZM89.85,232.29h7.32v7.32h-7.32ZM111.80,232.29h7.32v7.32h-7.32ZM126.44,232.29h7.32v7.32h-7.32ZM133.76,232.29h7.32v7.32h-7.32ZM148.39,232.29h7.32v7.32h-7.32ZM163.02,232.29h7.32v7.32h-7.32ZM177.66,232.29h7.32v7.32h-7.32ZM184.98,232.29h7.32v7.32h-7.32ZM192.29,232.29h7.32v7.32h-7.32ZM214.24,232.29h7.32v7.32h-7.32ZM228.88,232.29h7.32v7.32h-7.32ZM236.20,232.29h7.32v7.32h-7.32ZM243.51,232.29h7.32v7.32h-7.32ZM250.83,232.29h7.32v7.32h-7.32ZM265.46,232.29h7.32v7.32h-7.32ZM272.78,232.29h7.32v7.32h-7.32ZM280.10,232.29h7.32v7.32h-7.32ZM287.41,232.29h7.32v7.32h-7.32ZM294.73,232.29h7.32v7.32h-7.32ZM67.90,239.61h7.32v7.32h-7.32ZM82.54,239.61h7.32v7.32h-7.32ZM89.85,239.61h7.32v7.32h-7.32ZM133.76,239.61h7.32v7.32h-7.32ZM148.39,239.61h7.32v7.32h-7.32ZM155.71,239.61h7.32v7.32h-7.32ZM163.02,239.61h7.32v7.32h-7.32ZM184.98,239.61h7.32v7.32h-7.32ZM192.29,239.61h7.32v7.32h-7.32ZM206.93,239.61h7.32v7.32h-7.32ZM236.20,239.61h7.32v7.32h-7.32ZM250.83,239.61h7.32v7.32h-7.32ZM272.78,239.61h7.32v7.32h-7.32ZM302.05,239.61h7.32v7.32h-7.32ZM38.63,246.93h7.32v7.32h-7.32ZM45.95,246.93h7.32v7.32h-7.32ZM53.27,246.93h7.32v7.32h-7.32ZM67.90,246.93h7.32v7.32h-7.32ZM89.85,246.93h7.32v7.32h-7.32ZM97.17,246.93h7.32v7.32h-7.32ZM111.80,246.93h7.32v7.32h-7.32ZM133.76,246.93h7.32v7.32h-7.32ZM148.39,246.93h7.32v7.32h-7.32ZM163.02,246.93h7.32v7.32h-7.32ZM177.66,246.93h7.32v7.32h-7.32ZM184.98,246.93h7.32v7.32h-7.32ZM192.29,246.93h7.32v7.32h-7.32ZM199.61,246.93h7.32v7.32h-7.32ZM214.24,246.93h7.32v7.32h-7.32ZM236.20,246.93h7.32v7.32h-7.32ZM243.51,246.93h7.32v7.32h-7.32ZM258.15,246.93h7.32v7.32h-7.32ZM265.46,246.93h7.32v7.32h-7.32ZM280.10,246.93h7.32v7.32h-7.32ZM287.41,246.93h7.32v7.32h-7.32ZM294.73,246.93h7.32v7.32h-7.32ZM302.05,246.93h7.32v7.32h-7.32ZM45.95,254.24h7.32v7.32h-7.32ZM67.90,254.24h7.32v7.32h-7.32ZM82.54,254.24h7.32v7.32h-7.32ZM97.17,254.24h7.32v7.32h-7.32ZM126.44,254.24h7.32v7.32h-7.32ZM148.39,254.24h7.32v7.32h-7.32ZM155.71,254.24h7.32v7.32h-7.32ZM170.34,254.24h7.32v7.32h-7.32ZM199.61,254.24h7.32v7.32h-7.32ZM214.24,254.24h7.32v7.32h-7.32ZM243.51,254.24h7.32v7.32h-7.32ZM258.15,254.24h7.32v7.32h-7.32ZM294.73,254.24h7.32v7.32h-7.32ZM38.63,261.56h7.32v7.32h-7.32ZM53.27,261.56h7.32v7.32h-7.32ZM60.59,261.56h7.32v7.32h-7.32ZM75.22,261.56h7.32v7.32h-7.32ZM119.12,261.56h7.32v7.32h-7.32ZM141.07,261.56h7.32v7.32h-7.32ZM148.39,261.56h7.32v7.32h-7.32ZM155.71,261.56h7.32v7.32h-7.32ZM163.02,261.56h7.32v7.32h-7.32ZM170.34,261.56h7.32v7.32h-7.32ZM177.66,261.56h7.32v7.32h-7.32ZM184.98,261.56h7.32v7.32h-7.32ZM221.56,261.56h7.32v7.32h-7.32ZM236.20,261.56h7.32v7.32h-7.32ZM243.51,261.56h7.32v7.32h-7.32ZM272.78,261.56h7.32v7.32h-7.32ZM294.73,261.56h7.32v7.32h-7.32ZM38.63,268.88h7.32v7.32h-7.32ZM45.95,268.88h7.32v7.32h-7.32ZM53.27,268.88h7.32v7.32h-7.32ZM67.90,268.88h7.32v7.32h-7.32ZM75.22,268.88h7.32v7.32h-7.32ZM82.54,268.88h7.32v7.32h-7.32ZM104.49,268.88h7.32v7.32h-7.32ZM111.80,268.88h7.32v7.32h-7.32ZM155.71,268.88h7.32v7.32h-7.32ZM206.93,268.88h7.32v7.32h-7.32ZM214.24,268.88h7.32v7.32h-7.32ZM228.88,268.88h7.32v7.32h-7.32ZM236.20,268.88h7.32v7.32h-7.32ZM243.51,268.88h7.32v7.32h-7.32ZM258.15,268.88h7.32v7.32h-7.32ZM280.10,268.88h7.32v7.32h-7.32ZM294.73,268.88h7.32v7.32h-7.32ZM302.05,268.88h7.32v7.32h-7.32ZM38.63,276.20h7.32v7.32h-7.32ZM53.27,276.20h7.32v7.32h-7.32ZM75.22,276.20h7.32v7.32h-7.32ZM89.85,276.20h7.32v7.32h-7.32ZM97.17,276.20h7.32v7.32h-7.32ZM141.07,276.20h7.32v7.32h-7.32ZM163.02,276.20h7.32v7.32h-7.32ZM184.98,276.20h7.32v7.32h-7.32ZM192.29,276.20h7.32v7.32h-7.32ZM199.61,276.20h7.32v7.32h-7.32ZM206.93,276.20h7.32v7.32h-7.32ZM250.83,276.20h7.32v7.32h-7.32ZM265.46,276.20h7.32v7.32h-7.32ZM287.41,276.20h7.32v7.32h-7.32ZM294.73,276.20h7.32v7.32h-7.32ZM302.05,276.20h7.32v7.32h-7.32ZM38.63,283.51h7.32v7.32h-7.32ZM60.59,283.51h7.32v7.32h-7.32ZM67.90,283.51h7.32v7.32h-7.32ZM75.22,283.51h7.32v7.32h-7.32ZM82.54,283.51h7.32v7.32h-7.32ZM104.49,283.51h7.32v7.32h-7.32ZM111.80,283.51h7.32v7.32h-7.32ZM119.12,283.51h7.32v7.32h-7.32ZM126.44,283.51h7.32v7.32h-7.32ZM170.34,283.51h7.32v7.32h-7.32ZM184.98,283.51h7.32v7.32h-7.32ZM192.29,283.51h7.32v7.32h-7.32ZM214.24,283.51h7.32v7.32h-7.32ZM221.56,283.51h7.32v7.32h-7.32ZM236.20,283.51h7.32v7.32h-7.32ZM243.51,283.51h7.32v7.32h-7.32ZM250.83,283.51h7.32v7.32h-7.32ZM258.15,283.51h7.32v7.32h-7.32ZM265.46,283.51h7.32v7.32h-7.32ZM272.78,283.51h7.32v7.32h-7.32ZM280.10,283.51h7.32v7.32h-7.32ZM287.41,283.51h7.32v7.32h-7.32ZM294.73,283.51h7.32v7.32h-7.32ZM97.17,290.83h7.32v7.32h-7.32ZM104.49,290.83h7.32v7.32h-7.32ZM111.80,290.83h7.32v7.32h-7.32ZM126.44,290.83h7.32v7.32h-7.32ZM141.07,290.83h7.32v7.32h-7.32ZM148.39,290.83h7.32v7.32h-7.32ZM155.71,290.83h7.32v7.32h-7.32ZM170.34,290.83h7.32v7.32h-7.32ZM177.66,290.83h7.32v7.32h-7.32ZM236.20,290.83h7.32v7.32h-7.32ZM243.51,290.83h7.32v7.32h-7.32ZM272.78,290.83h7.32v7.32h-7.32ZM280.10,290.83h7.32v7.32h-7.32ZM287.41,290.83h7.32v7.32h-7.32ZM38.63,298.15h7.32v7.32h-7.32ZM45.95,298.15h7.32v7.32h-7.32ZM53.27,298.15h7.32v7.32h-7.32ZM60.59,298.15h7.32v7.32h-7.32ZM67.90,298.15h7.32v7.32h-7.32ZM75.22,298.15h7.32v7.32h-7.32ZM82.54,298.15h7.32v7.32h-7.32ZM97.17,298.15h7.32v7.32h-7.32ZM104.49,298.15h7.32v7.32h-7.32ZM126.44,298.15h7.32v7.32h-7.32ZM141.07,298.15h7.32v7.32h-7.32ZM192.29,298.15h7.32v7.32h-7.32ZM206.93,298.15h7.32v7.32h-7.32ZM214.24,298.15h7.32v7.32h-7.32ZM228.88,298.15h7.32v7.32h-7.32ZM243.51,298.15h7.32v7.32h-7.32ZM258.15,298.15h7.32v7.32h-7.32ZM272.78,298.15h7.32v7.32h-7.32ZM280.10,298.15h7.32v7.32h-7.32ZM287.41,298.15h7.32v7.32h-7.32ZM302.05,298.15h7.32v7.32h-7.32ZM38.63,305.46h7.32v7.32h-7.32ZM82.54,305.46h7.32v7.32h-7.32ZM119.12,305.46h7.32v7.32h-7.32ZM126.44,305.46h7.32v7.32h-7.32ZM133.76,305.46h7.32v7.32h-7.32ZM148.39,305.46h7.32v7.32h-7.32ZM155.71,305.46h7.32v7.32h-7.32ZM177.66,305.46h7.32v7.32h-7.32ZM221.56,305.46h7.32v7.32h-7.32ZM243.51,305.46h7.32v7.32h-7.32ZM272.78,305.46h7.32v7.32h-7.32ZM280.10,305.46h7.32v7.32h-7.32ZM294.73,305.46h7.32v7.32h-7.32ZM302.05,305.46h7.32v7.32h-7.32ZM38.63,312.78h7.32v7.32h-7.32ZM53.27,312.78h7.32v7.32h-7.32ZM60.59,312.78h7.32v7.32h-7.32ZM67.90,312.78h7.32v7.32h-7.32ZM82.54,312.78h7.32v7.32h-7.32ZM97.17,312.78h7.32v7.32h-7.32ZM126.44,312.78h7.32v7.32h-7.32ZM133.76,312.78h7.32v7.32h-7.32ZM155.71,312.78h7.32v7.32h-7.32ZM214.24,312.78h7.32v7.32h-7.32ZM228.88,312.78h7.32v7.32h-7.32ZM236.20,312.78h7.32v7.32h-7.32ZM243.51,312.78h7.32v7.32h-7.32ZM250.83,312.78h7.32v7.32h-7.32ZM258.15,312.78h7.32v7.32h-7.32ZM265.46,312.78h7.32v7.32h-7.32ZM272.78,312.78h7.32v7.32h-7.32ZM38.63,320.10h7.32v7.32h-7.32ZM53.27,320.10h7.32v7.32h-7.32ZM60.59,320.10h7.32v7.32h-7.32ZM67.90,320.10h7.32v7.32h-7.32ZM82.54,320.10h7.32v7.32h-7.32ZM97.17,320.10h7.32v7.32h-7.32ZM111.80,320.10h7.32v7.32h-7.32ZM119.12,320.10h7.32v7.32h-7.32ZM155.71,320.10h7.32v7.32h-7.32ZM170.34,320.10h7.32v7.32h-7.32ZM177.66,320.10h7.32v7.32h-7.32ZM199.61,320.10h7.32v7.32h-7.32ZM214.24,320.10h7.32v7.32h-7.32ZM221.56,320.10h7.32v7.32h-7.32ZM243.51,320.10h7.32v7.32h-7.32ZM258.15,320.10h7.32v7.32h-7.32ZM265.46,320.10h7.32v7.32h-7.32ZM280.10,320.10h7.32v7.32h-7.32ZM287.41,320.10h7.32v7.32h-7.32ZM38.63,327.41h7.32v7.32h-7.32ZM53.27,327.41h7.32v7.32h-7.32ZM60.59,327.41h7.32v7.32h-7.32ZM67.90,327.41h7.32v7.32h-7.32ZM82.54,327.41h7.32v7.32h-7.32ZM119.12,327.41h7.32v7.32h-7.32ZM133.76,327.41h7.32v7.32h-7.32ZM148.39,327.41h7.32v7.32h-7.32ZM163.02,327.41h7.32v7.32h-7.32ZM170.34,327.41h7.32v7.32h-7.32ZM206.93,327.41h7.32v7.32h-7.32ZM228.88,327.41h7.32v7.32h-7.32ZM236.20,327.41h7.32v7.32h-7.32ZM243.51,327.41h7.32v7.32h-7.32ZM272.78,327.41h7.32v7.32h-7.32ZM294.73,327.41h7.32v7.32h-7.32ZM302.05,327.41h7.32v7.32h-7.32ZM38.63,334.73h7.32v7.32h-7.32ZM82.54,334.73h7.32v7.32h-7.32ZM119.12,334.73h7.32v7.32h-7.32ZM141.07,334.73h7.32v7.32h-7.32ZM170.34,334.73h7.32v7.32h-7.32ZM177.66,334.73h7.32v7.32h-7.32ZM214.24,334.73h7.32v7.32h-7.32ZM228.88,334.73h7.32v7.32h-7.32ZM250.83,334.73h7.32v7.32h-7.32ZM258.15,334.73h7.32v7.32h-7.32ZM265.46,334.73h7.32v7.32h-7.32ZM272.78,334.73h7.32v7.32h-7.32ZM280.10,334.73h7.32v7.32h-7.32ZM287.41,334.73h7.32v7.32h-7.32ZM294.73,334.73h7.32v7.32h-7.32ZM302.05,334.73h7.32v7.32h-7.32ZM38.63,342.05h7.32v7.32h-7.32ZM45.95,342.05h7.32v7.32h-7.32ZM53.27,342.05h7.32v7.32h-7.32ZM60.59,342.05h7.32v7.32h-7.32ZM67.90,342.05h7.32v7.32h-7.32ZM75.22,342.05h7.32v7.32h-7.32ZM82.54,342.05h7.32v7.32h-7.32ZM104.49,342.05h7.32v7.32h-7.32ZM111.80,342.05h7.32v7.32h-7.32ZM155.71,342.05h7.32v7.32h-7.32ZM163.02,342.05h7.32v7.32h-7.32ZM170.34,342.05h7.32v7.32h-7.32ZM192.29,342.05h7.32v7.32h-7.32ZM199.61,342.05h7.32v7.32h-7.32ZM206.93,342.05h7.32v7.32h-7.32ZM243.51,342.05h7.32v7.32h-7.32ZM265.46,342.05h7.32v7.32h-7.32ZM272.78,342.05h7.32v7.32h-7.32ZM280.10,342.05h7.32v7.32h-7.32ZM302.05,342.05h7.32v7.32h-7.32Z" fill="#fe428e"/><g class="qr-logo"><circle cx="174.00" cy="214.00" r="46.50" fill="#0f1724"/><g transform="translate(136.50,176.50) scale(3.1250)"><path d="M12 .297c-6.63 0-12 5.373-12 12 0 5.303 3.438 9.8 8.205 11.385.6.113.82-.258.82-.577 0-.285-.01-1.04-.015-2.04-3.338.724-4.042-1.61-4.042-1.61C4.422 18.07 3.633 17.7 3.633 17.7c-1.087-.744.084-.729.084-.729 1.205.084 1.838 1.236 1.838 1.236 1.07 1.835 2.809 1.305 3.495.998.108-.776.417-1.305.76-1.605-2.665-.3-5.466-1.332-5.466-5.93 0-1.31.465-2.38 1.235-3.22-.135-.303-.54-1.523.105-3.176 0 0 1.005-.322 3.3 1.23.96-.267 1.98-.399 3-.405 1.02.006 2.04.138 3 .405 2.28-1.552 3.285-1.23 3.285-1.23.645 1.653.24 2.873.12 3.176.765.84 1.23 1.91 1.23 3.22 0 4.61-2.805 5.625-5.475 5.92.42.36.81 1.096.81 2.22 0 1.606-.015 2.896-.015 3.286 0 .315.21.69.825.57C20.565 22.092 24 17.592 24 12.297c0-6.627-5.373-12-12-12" fill="#fe428e"/></g></g><!-- Generated: 2026-03-30T15:49:23.356Z --></svg>