<svg xmlns="http://www.w3.org/2000/svg" width="900" height="360" viewBox="0 0 900 360" role="img" aria-label="Contributions – Cyrus Mobini (@cyrus2281)">
  <!-- Created By GitHub Widgets - Authored by cyrus2281 -->
  <!-- Github: https://github.com/cyrus2281/github-widgets -->
  <defs>
    <linearGradient id="gradLine" x1="0" x2="1" y1="0" y2="0">
      <stop offset="0%" stop-color="#7c5cff" stop-opacity="1"/>
      <stop offset="100%" stop-color="#ff6b6b" stop-opacity="1"/>
    </linearGradient>

    <linearGradient id="areaFade" x1="0" x2="0" y1="0" y2="1">
      <stop offset="0%" stop-color="#ff6b6b" stop-opacity="0.20"/>
      <stop offset="100%" stop-color="#7c5cff" stop-opacity="0.02"/>
    </linearGradient>

    <filter id="cardShadow" x="-50%" y="-50%" width="200%" height="200%">
      <feDropShadow dx="0" dy="8" stdDeviation="14" flood-color="#000" flood-opacity="0.45"/>
    </filter>

    <style>
      .card-bg { fill: #0f1724; }
      .title-main { font: 700 18px system-ui, -apple-system, "Segoe UI", Roboto, "Helvetica Neue", Arial; fill: #cbd5e1; opacity: 0; animation: fadeIn 0.9s ease-out forwards; }
      .title-login { font-weight: 700; fill: #ff6b6b; font-family: "SFMono-Regular", ui-monospace, "Roboto Mono", monospace; }
      .subtitle { font: 500 13px system-ui, -apple-system, "Segoe UI", Roboto, "Helvetica Neue", Arial; fill: #94a3b8; opacity: 0; animation: fadeIn 0.9s ease-out forwards 0.35s; }
      .meta { font: 500 13px system-ui, -apple-system, "Segoe UI", Roboto, "Helvetica Neue", Arial; fill: #94a3b8; opacity: 0; animation: fadeIn 0.9s ease-out forwards 0.6s; }
      .total-num { font: 700 15px system-ui, -apple-system, "Segoe UI", Roboto, "Helvetica Neue", Arial; fill: #cbd5e1; }
      .axis-label { font: 400 11px system-ui, -apple-system, "Segoe UI", Roboto, "Helvetica Neue", Arial; fill: #94a3b8; }
      .tick { font: 400 11px system-ui, -apple-system, "Segoe UI", Roboto, "Helvetica Neue", Arial; fill: #94a3b8; }
      .grid-line { stroke: rgba(255,255,255,0.06); stroke-width: 1; }
      .line { fill: none; stroke: url(#gradLine); stroke-width: 2.5; stroke-linejoin: round; stroke-linecap: round; animation: drawLine 2s cubic-bezier(.22,.9,.3,1) forwards; }
      .area { fill: url(#areaFade); opacity: 0; animation: fadeArea 1.0s ease-out forwards 0.9s; }
      .point { stroke: none; opacity: 0; animation: fadeIn 0.5s ease-out forwards 1.6s; }

      @keyframes drawLine {
        from { stroke-dashoffset: 10132; }
        to   { stroke-dashoffset: 0; }
      }
      @keyframes fadeArea { to { opacity: 0.95; } }
      @keyframes fadeIn { to { opacity: 1; } }
    </style>
  </defs>

  <!-- card -->
  <rect x="6" y="6" width="888" height="348" rx="14" ry="14" class="card-bg" filter="url(#cardShadow)"/>

  <!-- header: title -->
  <g transform="translate(64, 42)">
    <text class="title-main" x="0" y="0">
      Contributions – Cyrus Mobini <tspan class="title-login">(@cyrus2281)</tspan>
    </text>
    <text class="subtitle" x="0" y="20">
      Commits: 858 · PRs: 238 · Issues: 21 · Reviews: 415
    </text>
  </g>

  <!-- total inline at top-right -->
  <g transform="translate(844, 44)">
    <text class="meta" x="0" y="0" text-anchor="end">Total: <tspan class="total-num">1540</tspan></text>
  </g>

  <!-- grid horizontal lines and y tick labels -->
  <g>
    <g>
          <line x1="64" x2="852" y1="300.00" y2="300.00" class="grid-line" />
          <text class="tick" x="54" y="300.00" dy="4" text-anchor="end">0</text>
        </g><g>
          <line x1="64" x2="852" y1="247.35" y2="247.35" class="grid-line" />
          <text class="tick" x="54" y="247.35" dy="4" text-anchor="end">8</text>
        </g><g>
          <line x1="64" x2="852" y1="194.71" y2="194.71" class="grid-line" />
          <text class="tick" x="54" y="194.71" dy="4" text-anchor="end">16</text>
        </g><g>
          <line x1="64" x2="852" y1="142.06" y2="142.06" class="grid-line" />
          <text class="tick" x="54" y="142.06" dy="4" text-anchor="end">24</text>
        </g><g>
          <line x1="64" x2="852" y1="96.00" y2="96.00" class="grid-line" />
          <text class="tick" x="54" y="96.00" dy="4" text-anchor="end">31</text>
        </g>
  </g>

  <!-- area under line (fades in) -->
  <path d="M 64.00 300 L 64.00 286.84 L 66.16 267.10 L 68.33 293.42 L 70.49 273.68 L 72.66 300.00 L 74.82 155.23 L 76.99 300.00 L 79.15 293.42 L 81.32 280.26 L 83.48 194.71 L 85.65 286.84 L 87.81 174.97 L 89.98 161.81 L 92.14 227.61 L 94.31 247.35 L 96.47 214.45 L 98.64 174.97 L 100.80 260.52 L 102.97 234.19 L 105.13 234.19 L 107.30 300.00 L 109.46 300.00 L 111.63 293.42 L 113.79 260.52 L 115.96 280.26 L 118.12 260.52 L 120.29 253.94 L 122.45 300.00 L 124.62 286.84 L 126.78 260.52 L 128.95 260.52 L 131.11 280.26 L 133.27 247.35 L 135.44 221.03 L 137.60 300.00 L 139.77 300.00 L 141.93 286.84 L 144.10 227.61 L 146.26 267.10 L 148.43 273.68 L 150.59 273.68 L 152.76 300.00 L 154.92 300.00 L 157.09 286.84 L 159.25 267.10 L 161.42 221.03 L 163.58 273.68 L 165.75 234.19 L 167.91 300.00 L 170.08 300.00 L 172.24 273.68 L 174.41 207.87 L 176.57 273.68 L 178.74 286.84 L 180.90 267.10 L 183.07 300.00 L 185.23 300.00 L 187.40 273.68 L 189.56 240.77 L 191.73 286.84 L 193.89 293.42 L 196.05 280.26 L 198.22 300.00 L 200.38 300.00 L 202.55 273.68 L 204.71 280.26 L 206.88 253.94 L 209.04 240.77 L 211.21 253.94 L 213.37 300.00 L 215.54 300.00 L 217.70 286.84 L 219.87 253.94 L 222.03 260.52 L 224.20 280.26 L 226.36 168.39 L 228.53 300.00 L 230.69 300.00 L 232.86 300.00 L 235.02 300.00 L 237.19 300.00 L 239.35 300.00 L 241.52 300.00 L 243.68 300.00 L 245.85 300.00 L 248.01 300.00 L 250.18 300.00 L 252.34 300.00 L 254.51 247.35 L 256.67 267.10 L 258.84 300.00 L 261.00 300.00 L 263.16 293.42 L 265.33 293.42 L 267.49 286.84 L 269.66 273.68 L 271.82 280.26 L 273.99 300.00 L 276.15 300.00 L 278.32 286.84 L 280.48 253.94 L 282.65 300.00 L 284.81 300.00 L 286.98 273.68 L 289.14 300.00 L 291.31 300.00 L 293.47 194.71 L 295.64 221.03 L 297.80 267.10 L 299.97 280.26 L 302.13 273.68 L 304.30 300.00 L 306.46 300.00 L 308.63 267.10 L 310.79 280.26 L 312.96 286.84 L 315.12 267.10 L 317.29 267.10 L 319.45 300.00 L 321.62 300.00 L 323.78 273.68 L 325.95 267.10 L 328.11 240.77 L 330.27 293.42 L 332.44 286.84 L 334.60 300.00 L 336.77 300.00 L 338.93 280.26 L 341.10 214.45 L 343.26 234.19 L 345.43 267.10 L 347.59 273.68 L 349.76 300.00 L 351.92 300.00 L 354.09 300.00 L 356.25 227.61 L 358.42 247.35 L 360.58 155.23 L 362.75 234.19 L 364.91 300.00 L 367.08 300.00 L 369.24 293.42 L 371.41 201.29 L 373.57 96.00 L 375.74 300.00 L 377.90 286.84 L 380.07 300.00 L 382.23 300.00 L 384.40 300.00 L 386.56 300.00 L 388.73 300.00 L 390.89 300.00 L 393.05 300.00 L 395.22 300.00 L 397.38 300.00 L 399.55 240.77 L 401.71 260.52 L 403.88 188.13 L 406.04 280.26 L 408.21 240.77 L 410.37 300.00 L 412.54 300.00 L 414.70 286.84 L 416.87 273.68 L 419.03 300.00 L 421.20 247.35 L 423.36 280.26 L 425.53 300.00 L 427.69 300.00 L 429.86 227.61 L 432.02 260.52 L 434.19 247.35 L 436.35 247.35 L 438.52 181.55 L 440.68 300.00 L 442.85 300.00 L 445.01 253.94 L 447.18 260.52 L 449.34 240.77 L 451.51 260.52 L 453.67 155.23 L 455.84 300.00 L 458.00 300.00 L 460.16 227.61 L 462.33 214.45 L 464.49 221.03 L 466.66 273.68 L 468.82 300.00 L 470.99 300.00 L 473.15 300.00 L 475.32 300.00 L 477.48 300.00 L 479.65 300.00 L 481.81 293.42 L 483.98 300.00 L 486.14 300.00 L 488.31 300.00 L 490.47 207.87 L 492.64 214.45 L 494.80 260.52 L 496.97 280.26 L 499.13 253.94 L 501.30 300.00 L 503.46 300.00 L 505.63 280.26 L 507.79 260.52 L 509.96 293.42 L 512.12 280.26 L 514.29 300.00 L 516.45 300.00 L 518.62 300.00 L 520.78 273.68 L 522.95 227.61 L 525.11 293.42 L 527.27 273.68 L 529.44 300.00 L 531.60 300.00 L 533.77 293.42 L 535.93 293.42 L 538.10 280.26 L 540.26 273.68 L 542.43 188.13 L 544.59 260.52 L 546.76 300.00 L 548.92 300.00 L 551.09 300.00 L 553.25 227.61 L 555.42 280.26 L 557.58 280.26 L 559.75 240.77 L 561.91 300.00 L 564.08 300.00 L 566.24 247.35 L 568.41 207.87 L 570.57 214.45 L 572.74 253.94 L 574.90 253.94 L 577.07 300.00 L 579.23 300.00 L 581.40 260.52 L 583.56 267.10 L 585.73 273.68 L 587.89 293.42 L 590.05 286.84 L 592.22 300.00 L 594.38 300.00 L 596.55 247.35 L 598.71 260.52 L 600.88 280.26 L 603.04 273.68 L 605.21 293.42 L 607.37 300.00 L 609.54 300.00 L 611.70 253.94 L 613.87 227.61 L 616.03 300.00 L 618.20 300.00 L 620.36 273.68 L 622.53 300.00 L 624.69 300.00 L 626.86 280.26 L 629.02 273.68 L 631.19 293.42 L 633.35 293.42 L 635.52 300.00 L 637.68 300.00 L 639.85 300.00 L 642.01 240.77 L 644.18 300.00 L 646.34 253.94 L 648.51 214.45 L 650.67 280.26 L 652.84 300.00 L 655.00 300.00 L 657.16 253.94 L 659.33 201.29 L 661.49 240.77 L 663.66 234.19 L 665.82 293.42 L 667.99 300.00 L 670.15 293.42 L 672.32 227.61 L 674.48 286.84 L 676.65 227.61 L 678.81 260.52 L 680.98 214.45 L 683.14 300.00 L 685.31 300.00 L 687.47 221.03 L 689.64 214.45 L 691.80 234.19 L 693.97 280.26 L 696.13 300.00 L 698.30 300.00 L 700.46 300.00 L 702.63 194.71 L 704.79 267.10 L 706.96 267.10 L 709.12 253.94 L 711.29 221.03 L 713.45 300.00 L 715.62 300.00 L 717.78 300.00 L 719.95 221.03 L 722.11 253.94 L 724.27 253.94 L 726.44 168.39 L 728.60 300.00 L 730.77 300.00 L 732.93 286.84 L 735.10 300.00 L 737.26 300.00 L 739.43 300.00 L 741.59 300.00 L 743.76 300.00 L 745.92 300.00 L 748.09 300.00 L 750.25 253.94 L 752.42 273.68 L 754.58 293.42 L 756.75 286.84 L 758.91 300.00 L 761.08 300.00 L 763.24 280.26 L 765.41 293.42 L 767.57 280.26 L 769.74 293.42 L 771.90 293.42 L 774.07 300.00 L 776.23 300.00 L 778.40 300.00 L 780.56 260.52 L 782.73 267.10 L 784.89 286.84 L 787.05 286.84 L 789.22 286.84 L 791.38 300.00 L 793.55 300.00 L 795.71 286.84 L 797.88 280.26 L 800.04 280.26 L 802.21 253.94 L 804.37 300.00 L 806.54 300.00 L 808.70 221.03 L 810.87 227.61 L 813.03 267.10 L 815.20 280.26 L 817.36 280.26 L 819.53 300.00 L 821.69 300.00 L 823.86 234.19 L 826.02 273.68 L 828.19 293.42 L 830.35 234.19 L 832.52 293.42 L 834.68 300.00 L 836.85 300.00 L 839.01 227.61 L 841.18 227.61 L 843.34 194.71 L 845.51 253.94 L 847.67 286.84 L 849.84 300.00 L 852.00 273.68 L 852.00 300 Z" class="area"/>

  <!-- line (stroke-dasharray set to exact path length for clean single-dash draw) -->
  <path d="M 64.00 286.84 L 66.16 267.10 L 68.33 293.42 L 70.49 273.68 L 72.66 300.00 L 74.82 155.23 L 76.99 300.00 L 79.15 293.42 L 81.32 280.26 L 83.48 194.71 L 85.65 286.84 L 87.81 174.97 L 89.98 161.81 L 92.14 227.61 L 94.31 247.35 L 96.47 214.45 L 98.64 174.97 L 100.80 260.52 L 102.97 234.19 L 105.13 234.19 L 107.30 300.00 L 109.46 300.00 L 111.63 293.42 L 113.79 260.52 L 115.96 280.26 L 118.12 260.52 L 120.29 253.94 L 122.45 300.00 L 124.62 286.84 L 126.78 260.52 L 128.95 260.52 L 131.11 280.26 L 133.27 247.35 L 135.44 221.03 L 137.60 300.00 L 139.77 300.00 L 141.93 286.84 L 144.10 227.61 L 146.26 267.10 L 148.43 273.68 L 150.59 273.68 L 152.76 300.00 L 154.92 300.00 L 157.09 286.84 L 159.25 267.10 L 161.42 221.03 L 163.58 273.68 L 165.75 234.19 L 167.91 300.00 L 170.08 300.00 L 172.24 273.68 L 174.41 207.87 L 176.57 273.68 L 178.74 286.84 L 180.90 267.10 L 183.07 300.00 L 185.23 300.00 L 187.40 273.68 L 189.56 240.77 L 191.73 286.84 L 193.89 293.42 L 196.05 280.26 L 198.22 300.00 L 200.38 300.00 L 202.55 273.68 L 204.71 280.26 L 206.88 253.94 L 209.04 240.77 L 211.21 253.94 L 213.37 300.00 L 215.54 300.00 L 217.70 286.84 L 219.87 253.94 L 222.03 260.52 L 224.20 280.26 L 226.36 168.39 L 228.53 300.00 L 230.69 300.00 L 232.86 300.00 L 235.02 300.00 L 237.19 300.00 L 239.35 300.00 L 241.52 300.00 L 243.68 300.00 L 245.85 300.00 L 248.01 300.00 L 250.18 300.00 L 252.34 300.00 L 254.51 247.35 L 256.67 267.10 L 258.84 300.00 L 261.00 300.00 L 263.16 293.42 L 265.33 293.42 L 267.49 286.84 L 269.66 273.68 L 271.82 280.26 L 273.99 300.00 L 276.15 300.00 L 278.32 286.84 L 280.48 253.94 L 282.65 300.00 L 284.81 300.00 L 286.98 273.68 L 289.14 300.00 L 291.31 300.00 L 293.47 194.71 L 295.64 221.03 L 297.80 267.10 L 299.97 280.26 L 302.13 273.68 L 304.30 300.00 L 306.46 300.00 L 308.63 267.10 L 310.79 280.26 L 312.96 286.84 L 315.12 267.10 L 317.29 267.10 L 319.45 300.00 L 321.62 300.00 L 323.78 273.68 L 325.95 267.10 L 328.11 240.77 L 330.27 293.42 L 332.44 286.84 L 334.60 300.00 L 336.77 300.00 L 338.93 280.26 L 341.10 214.45 L 343.26 234.19 L 345.43 267.10 L 347.59 273.68 L 349.76 300.00 L 351.92 300.00 L 354.09 300.00 L 356.25 227.61 L 358.42 247.35 L 360.58 155.23 L 362.75 234.19 L 364.91 300.00 L 367.08 300.00 L 369.24 293.42 L 371.41 201.29 L 373.57 96.00 L 375.74 300.00 L 377.90 286.84 L 380.07 300.00 L 382.23 300.00 L 384.40 300.00 L 386.56 300.00 L 388.73 300.00 L 390.89 300.00 L 393.05 300.00 L 395.22 300.00 L 397.38 300.00 L 399.55 240.77 L 401.71 260.52 L 403.88 188.13 L 406.04 280.26 L 408.21 240.77 L 410.37 300.00 L 412.54 300.00 L 414.70 286.84 L 416.87 273.68 L 419.03 300.00 L 421.20 247.35 L 423.36 280.26 L 425.53 300.00 L 427.69 300.00 L 429.86 227.61 L 432.02 260.52 L 434.19 247.35 L 436.35 247.35 L 438.52 181.55 L 440.68 300.00 L 442.85 300.00 L 445.01 253.94 L 447.18 260.52 L 449.34 240.77 L 451.51 260.52 L 453.67 155.23 L 455.84 300.00 L 458.00 300.00 L 460.16 227.61 L 462.33 214.45 L 464.49 221.03 L 466.66 273.68 L 468.82 300.00 L 470.99 300.00 L 473.15 300.00 L 475.32 300.00 L 477.48 300.00 L 479.65 300.00 L 481.81 293.42 L 483.98 300.00 L 486.14 300.00 L 488.31 300.00 L 490.47 207.87 L 492.64 214.45 L 494.80 260.52 L 496.97 280.26 L 499.13 253.94 L 501.30 300.00 L 503.46 300.00 L 505.63 280.26 L 507.79 260.52 L 509.96 293.42 L 512.12 280.26 L 514.29 300.00 L 516.45 300.00 L 518.62 300.00 L 520.78 273.68 L 522.95 227.61 L 525.11 293.42 L 527.27 273.68 L 529.44 300.00 L 531.60 300.00 L 533.77 293.42 L 535.93 293.42 L 538.10 280.26 L 540.26 273.68 L 542.43 188.13 L 544.59 260.52 L 546.76 300.00 L 548.92 300.00 L 551.09 300.00 L 553.25 227.61 L 555.42 280.26 L 557.58 280.26 L 559.75 240.77 L 561.91 300.00 L 564.08 300.00 L 566.24 247.35 L 568.41 207.87 L 570.57 214.45 L 572.74 253.94 L 574.90 253.94 L 577.07 300.00 L 579.23 300.00 L 581.40 260.52 L 583.56 267.10 L 585.73 273.68 L 587.89 293.42 L 590.05 286.84 L 592.22 300.00 L 594.38 300.00 L 596.55 247.35 L 598.71 260.52 L 600.88 280.26 L 603.04 273.68 L 605.21 293.42 L 607.37 300.00 L 609.54 300.00 L 611.70 253.94 L 613.87 227.61 L 616.03 300.00 L 618.20 300.00 L 620.36 273.68 L 622.53 300.00 L 624.69 300.00 L 626.86 280.26 L 629.02 273.68 L 631.19 293.42 L 633.35 293.42 L 635.52 300.00 L 637.68 300.00 L 639.85 300.00 L 642.01 240.77 L 644.18 300.00 L 646.34 253.94 L 648.51 214.45 L 650.67 280.26 L 652.84 300.00 L 655.00 300.00 L 657.16 253.94 L 659.33 201.29 L 661.49 240.77 L 663.66 234.19 L 665.82 293.42 L 667.99 300.00 L 670.15 293.42 L 672.32 227.61 L 674.48 286.84 L 676.65 227.61 L 678.81 260.52 L 680.98 214.45 L 683.14 300.00 L 685.31 300.00 L 687.47 221.03 L 689.64 214.45 L 691.80 234.19 L 693.97 280.26 L 696.13 300.00 L 698.30 300.00 L 700.46 300.00 L 702.63 194.71 L 704.79 267.10 L 706.96 267.10 L 709.12 253.94 L 711.29 221.03 L 713.45 300.00 L 715.62 300.00 L 717.78 300.00 L 719.95 221.03 L 722.11 253.94 L 724.27 253.94 L 726.44 168.39 L 728.60 300.00 L 730.77 300.00 L 732.93 286.84 L 735.10 300.00 L 737.26 300.00 L 739.43 300.00 L 741.59 300.00 L 743.76 300.00 L 745.92 300.00 L 748.09 300.00 L 750.25 253.94 L 752.42 273.68 L 754.58 293.42 L 756.75 286.84 L 758.91 300.00 L 761.08 300.00 L 763.24 280.26 L 765.41 293.42 L 767.57 280.26 L 769.74 293.42 L 771.90 293.42 L 774.07 300.00 L 776.23 300.00 L 778.40 300.00 L 780.56 260.52 L 782.73 267.10 L 784.89 286.84 L 787.05 286.84 L 789.22 286.84 L 791.38 300.00 L 793.55 300.00 L 795.71 286.84 L 797.88 280.26 L 800.04 280.26 L 802.21 253.94 L 804.37 300.00 L 806.54 300.00 L 808.70 221.03 L 810.87 227.61 L 813.03 267.10 L 815.20 280.26 L 817.36 280.26 L 819.53 300.00 L 821.69 300.00 L 823.86 234.19 L 826.02 273.68 L 828.19 293.42 L 830.35 234.19 L 832.52 293.42 L 834.68 300.00 L 836.85 300.00 L 839.01 227.61 L 841.18 227.61 L 843.34 194.71 L 845.51 253.94 L 847.67 286.84 L 849.84 300.00 L 852.00 273.68" class="line" stroke-dasharray="10132 10132" stroke-dashoffset="10132" />

  <!-- points -->
  <g>
    <circle cx="64.00" cy="286.84" r="2.6" class="point" fill="url(#gradLine)" /><circle cx="85.65" cy="286.84" r="2.6" class="point" fill="url(#gradLine)" /><circle cx="107.30" cy="300.00" r="2.6" class="point" fill="#ffffff11" /><circle cx="128.95" cy="260.52" r="2.6" class="point" fill="url(#gradLine)" /><circle cx="150.59" cy="273.68" r="2.6" class="point" fill="url(#gradLine)" /><circle cx="172.24" cy="273.68" r="2.6" class="point" fill="url(#gradLine)" /><circle cx="193.89" cy="293.42" r="2.6" class="point" fill="url(#gradLine)" /><circle cx="215.54" cy="300.00" r="2.6" class="point" fill="#ffffff11" /><circle cx="237.19" cy="300.00" r="2.6" class="point" fill="#ffffff11" /><circle cx="258.84" cy="300.00" r="2.6" class="point" fill="#ffffff11" /><circle cx="280.48" cy="253.94" r="2.6" class="point" fill="url(#gradLine)" /><circle cx="302.13" cy="273.68" r="2.6" class="point" fill="url(#gradLine)" /><circle cx="323.78" cy="273.68" r="2.6" class="point" fill="url(#gradLine)" /><circle cx="345.43" cy="267.10" r="2.6" class="point" fill="url(#gradLine)" /><circle cx="367.08" cy="300.00" r="2.6" class="point" fill="#ffffff11" /><circle cx="388.73" cy="300.00" r="2.6" class="point" fill="#ffffff11" /><circle cx="410.37" cy="300.00" r="2.6" class="point" fill="#ffffff11" /><circle cx="432.02" cy="260.52" r="2.6" class="point" fill="url(#gradLine)" /><circle cx="453.67" cy="155.23" r="2.6" class="point" fill="url(#gradLine)" /><circle cx="475.32" cy="300.00" r="2.6" class="point" fill="#ffffff11" /><circle cx="496.97" cy="280.26" r="2.6" class="point" fill="url(#gradLine)" /><circle cx="518.62" cy="300.00" r="2.6" class="point" fill="#ffffff11" /><circle cx="540.26" cy="273.68" r="2.6" class="point" fill="url(#gradLine)" /><circle cx="561.91" cy="300.00" r="2.6" class="point" fill="#ffffff11" /><circle cx="583.56" cy="267.10" r="2.6" class="point" fill="url(#gradLine)" /><circle cx="605.21" cy="293.42" r="2.6" class="point" fill="url(#gradLine)" /><circle cx="626.86" cy="280.26" r="2.6" class="point" fill="url(#gradLine)" /><circle cx="648.51" cy="214.45" r="2.6" class="point" fill="url(#gradLine)" /><circle cx="670.15" cy="293.42" r="2.6" class="point" fill="url(#gradLine)" /><circle cx="691.80" cy="234.19" r="2.6" class="point" fill="url(#gradLine)" /><circle cx="713.45" cy="300.00" r="2.6" class="point" fill="#ffffff11" /><circle cx="735.10" cy="300.00" r="2.6" class="point" fill="#ffffff11" /><circle cx="756.75" cy="286.84" r="2.6" class="point" fill="url(#gradLine)" /><circle cx="778.40" cy="300.00" r="2.6" class="point" fill="#ffffff11" /><circle cx="800.04" cy="280.26" r="2.6" class="point" fill="url(#gradLine)" /><circle cx="821.69" cy="300.00" r="2.6" class="point" fill="#ffffff11" /><circle cx="843.34" cy="194.71" r="2.6" class="point" fill="url(#gradLine)" />
  </g>

  <!-- x-axis labels (4 evenly spaced labels) -->
  <g>
    <text class="axis-label" x="64.00" y="324.00" text-anchor="middle">Oct 2024</text><text class="axis-label" x="325.95" y="324.00" text-anchor="middle">Feb 2025</text><text class="axis-label" x="590.05" y="324.00" text-anchor="middle">Jun 2025</text><text class="axis-label" x="852.00" y="324.00" text-anchor="middle">Oct 2025</text>
  </g>

  <!-- bottom axis line -->
  <line x1="64" x2="852" y1="300.00" y2="300.00" stroke="rgba(255,255,255,0.06)" stroke-width="1" />
  <!-- Github: https://github.com/cyrus2281/github-widgets -->
</svg>