<svg xmlns="http://www.w3.org/2000/svg" width="900" height="360" viewBox="0 0 900 360" role="img" aria-label="Contributions – Cyrus Mobini (@cyrus2281)">
  <!-- Created By GitHub Widgets - Authored by cyrus2281 -->
  <!-- Github: https://github.com/cyrus2281/github-widgets -->
  <defs>
    <linearGradient id="gradLine" x1="0" x2="1" y1="0" y2="0">
      <stop offset="0%" stop-color="#7c4dff" stop-opacity="1"/>
      <stop offset="100%" stop-color="#bb86fc" stop-opacity="1"/>
    </linearGradient>

    <linearGradient id="areaFade" x1="0" x2="0" y1="0" y2="1">
      <stop offset="0%" stop-color="#bb86fc" stop-opacity="0.20"/>
      <stop offset="100%" stop-color="#7c4dff" stop-opacity="0.02"/>
    </linearGradient>

    <filter id="cardShadow" x="-50%" y="-50%" width="200%" height="200%">
      <feDropShadow dx="0" dy="8" stdDeviation="14" flood-color="#000" flood-opacity="0.45"/>
    </filter>

    <style>
      .card-bg { fill: #1a0b3d; }
      .title-main { font: 700 18px system-ui, -apple-system, "Segoe UI", Roboto, "Helvetica Neue", Arial; fill: #e0d4ff; opacity: 0; animation: fadeIn 0.9s ease-out forwards; }
      .title-login { font-weight: 700; fill: #bb86fc; font-family: "SFMono-Regular", ui-monospace, "Roboto Mono", monospace; }
      .subtitle { font: 500 13px system-ui, -apple-system, "Segoe UI", Roboto, "Helvetica Neue", Arial; fill: #b8a5d9; opacity: 0; animation: fadeIn 0.9s ease-out forwards 0.35s; }
      .meta { font: 500 13px system-ui, -apple-system, "Segoe UI", Roboto, "Helvetica Neue", Arial; fill: #b8a5d9; opacity: 0; animation: fadeIn 0.9s ease-out forwards 0.6s; }
      .total-num { font: 700 15px system-ui, -apple-system, "Segoe UI", Roboto, "Helvetica Neue", Arial; fill: #e0d4ff; }
      .axis-label { font: 400 11px system-ui, -apple-system, "Segoe UI", Roboto, "Helvetica Neue", Arial; fill: #b8a5d9; }
      .tick { font: 400 11px system-ui, -apple-system, "Segoe UI", Roboto, "Helvetica Neue", Arial; fill: #b8a5d9; }
      .grid-line { stroke: rgba(255,255,255,0.06); stroke-width: 1; }
      .line { fill: none; stroke: url(#gradLine); stroke-width: 2.5; stroke-linejoin: round; stroke-linecap: round; animation: drawLine 2s cubic-bezier(.22,.9,.3,1) forwards; }
      .area { fill: url(#areaFade); opacity: 0; animation: fadeArea 1.0s ease-out forwards 0.9s; }
      .point { stroke: none; opacity: 0; animation: fadeIn 0.5s ease-out forwards 1.6s; }

      @keyframes drawLine {
        from { stroke-dashoffset: 10186; }
        to   { stroke-dashoffset: 0; }
      }
      @keyframes fadeArea { to { opacity: 0.95; } }
      @keyframes fadeIn { to { opacity: 1; } }
    </style>
  </defs>

  <!-- card -->
  <rect x="6" y="6" width="888" height="348" rx="14" ry="14" class="card-bg" filter="url(#cardShadow)"/>

  <!-- header: title -->
  <g transform="translate(64, 42)">
    <text class="title-main" x="0" y="0">
      Contributions – Cyrus Mobini <tspan class="title-login">(@cyrus2281)</tspan>
    </text>
    <text class="subtitle" x="0" y="20">
      Commits: 887 · PRs: 242 · Issues: 21 · Reviews: 414
    </text>
  </g>

  <!-- total inline at top-right -->
  <g transform="translate(844, 44)">
    <text class="meta" x="0" y="0" text-anchor="end">Total: <tspan class="total-num">1572</tspan></text>
  </g>

  <!-- grid horizontal lines and y tick labels -->
  <g>
    <g>
          <line x1="64" x2="852" y1="300.00" y2="300.00" class="grid-line" />
          <text class="tick" x="54" y="300.00" dy="4" text-anchor="end">0</text>
        </g><g>
          <line x1="64" x2="852" y1="247.35" y2="247.35" class="grid-line" />
          <text class="tick" x="54" y="247.35" dy="4" text-anchor="end">8</text>
        </g><g>
          <line x1="64" x2="852" y1="194.71" y2="194.71" class="grid-line" />
          <text class="tick" x="54" y="194.71" dy="4" text-anchor="end">16</text>
        </g><g>
          <line x1="64" x2="852" y1="142.06" y2="142.06" class="grid-line" />
          <text class="tick" x="54" y="142.06" dy="4" text-anchor="end">24</text>
        </g><g>
          <line x1="64" x2="852" y1="96.00" y2="96.00" class="grid-line" />
          <text class="tick" x="54" y="96.00" dy="4" text-anchor="end">31</text>
        </g>
  </g>

  <!-- area under line (fades in) -->
  <path d="M 64.00 300 L 64.00 293.42 L 66.16 273.68 L 68.32 300.00 L 70.48 155.23 L 72.64 300.00 L 74.79 293.42 L 76.95 280.26 L 79.11 194.71 L 81.27 286.84 L 83.43 174.97 L 85.59 161.81 L 87.75 227.61 L 89.91 247.35 L 92.07 214.45 L 94.22 174.97 L 96.38 260.52 L 98.54 234.19 L 100.70 234.19 L 102.86 300.00 L 105.02 300.00 L 107.18 293.42 L 109.34 260.52 L 111.50 280.26 L 113.65 260.52 L 115.81 253.94 L 117.97 300.00 L 120.13 286.84 L 122.29 260.52 L 124.45 260.52 L 126.61 280.26 L 128.77 247.35 L 130.93 221.03 L 133.08 300.00 L 135.24 300.00 L 137.40 286.84 L 139.56 227.61 L 141.72 267.10 L 143.88 273.68 L 146.04 273.68 L 148.20 300.00 L 150.36 300.00 L 152.52 286.84 L 154.67 267.10 L 156.83 221.03 L 158.99 273.68 L 161.15 234.19 L 163.31 300.00 L 165.47 300.00 L 167.63 273.68 L 169.79 207.87 L 171.95 273.68 L 174.10 286.84 L 176.26 267.10 L 178.42 300.00 L 180.58 300.00 L 182.74 273.68 L 184.90 240.77 L 187.06 286.84 L 189.22 293.42 L 191.38 280.26 L 193.53 300.00 L 195.69 300.00 L 197.85 273.68 L 200.01 280.26 L 202.17 253.94 L 204.33 240.77 L 206.49 253.94 L 208.65 300.00 L 210.81 300.00 L 212.96 286.84 L 215.12 253.94 L 217.28 260.52 L 219.44 280.26 L 221.60 168.39 L 223.76 300.00 L 225.92 300.00 L 228.08 300.00 L 230.24 300.00 L 232.39 300.00 L 234.55 300.00 L 236.71 300.00 L 238.87 300.00 L 241.03 300.00 L 243.19 300.00 L 245.35 300.00 L 247.51 300.00 L 249.67 247.35 L 251.82 267.10 L 253.98 300.00 L 256.14 300.00 L 258.30 293.42 L 260.46 293.42 L 262.62 286.84 L 264.78 273.68 L 266.94 280.26 L 269.10 300.00 L 271.25 300.00 L 273.41 286.84 L 275.57 253.94 L 277.73 300.00 L 279.89 300.00 L 282.05 273.68 L 284.21 300.00 L 286.37 300.00 L 288.53 194.71 L 290.68 221.03 L 292.84 267.10 L 295.00 280.26 L 297.16 273.68 L 299.32 300.00 L 301.48 300.00 L 303.64 267.10 L 305.80 280.26 L 307.96 286.84 L 310.12 267.10 L 312.27 267.10 L 314.43 300.00 L 316.59 300.00 L 318.75 273.68 L 320.91 267.10 L 323.07 240.77 L 325.23 293.42 L 327.39 286.84 L 329.55 300.00 L 331.70 300.00 L 333.86 280.26 L 336.02 214.45 L 338.18 234.19 L 340.34 267.10 L 342.50 273.68 L 344.66 300.00 L 346.82 300.00 L 348.98 300.00 L 351.13 227.61 L 353.29 247.35 L 355.45 155.23 L 357.61 234.19 L 359.77 300.00 L 361.93 300.00 L 364.09 293.42 L 366.25 201.29 L 368.41 96.00 L 370.56 300.00 L 372.72 286.84 L 374.88 300.00 L 377.04 300.00 L 379.20 300.00 L 381.36 300.00 L 383.52 300.00 L 385.68 300.00 L 387.84 300.00 L 389.99 300.00 L 392.15 300.00 L 394.31 240.77 L 396.47 260.52 L 398.63 188.13 L 400.79 280.26 L 402.95 240.77 L 405.11 300.00 L 407.27 300.00 L 409.42 286.84 L 411.58 273.68 L 413.74 300.00 L 415.90 247.35 L 418.06 280.26 L 420.22 300.00 L 422.38 300.00 L 424.54 227.61 L 426.70 260.52 L 428.85 247.35 L 431.01 247.35 L 433.17 181.55 L 435.33 300.00 L 437.49 300.00 L 439.65 253.94 L 441.81 260.52 L 443.97 240.77 L 446.13 260.52 L 448.28 155.23 L 450.44 300.00 L 452.60 300.00 L 454.76 227.61 L 456.92 214.45 L 459.08 221.03 L 461.24 273.68 L 463.40 300.00 L 465.56 300.00 L 467.72 300.00 L 469.87 300.00 L 472.03 300.00 L 474.19 300.00 L 476.35 293.42 L 478.51 300.00 L 480.67 300.00 L 482.83 300.00 L 484.99 207.87 L 487.15 214.45 L 489.30 260.52 L 491.46 280.26 L 493.62 253.94 L 495.78 300.00 L 497.94 300.00 L 500.10 280.26 L 502.26 260.52 L 504.42 293.42 L 506.58 280.26 L 508.73 300.00 L 510.89 300.00 L 513.05 300.00 L 515.21 273.68 L 517.37 227.61 L 519.53 293.42 L 521.69 273.68 L 523.85 300.00 L 526.01 300.00 L 528.16 293.42 L 530.32 293.42 L 532.48 280.26 L 534.64 273.68 L 536.80 188.13 L 538.96 260.52 L 541.12 300.00 L 543.28 300.00 L 545.44 300.00 L 547.59 227.61 L 549.75 280.26 L 551.91 280.26 L 554.07 240.77 L 556.23 300.00 L 558.39 300.00 L 560.55 247.35 L 562.71 207.87 L 564.87 214.45 L 567.02 253.94 L 569.18 253.94 L 571.34 300.00 L 573.50 300.00 L 575.66 260.52 L 577.82 267.10 L 579.98 273.68 L 582.14 293.42 L 584.30 286.84 L 586.45 300.00 L 588.61 300.00 L 590.77 247.35 L 592.93 260.52 L 595.09 280.26 L 597.25 273.68 L 599.41 293.42 L 601.57 300.00 L 603.73 300.00 L 605.88 253.94 L 608.04 227.61 L 610.20 300.00 L 612.36 300.00 L 614.52 273.68 L 616.68 300.00 L 618.84 300.00 L 621.00 280.26 L 623.16 273.68 L 625.32 293.42 L 627.47 293.42 L 629.63 300.00 L 631.79 300.00 L 633.95 300.00 L 636.11 240.77 L 638.27 300.00 L 640.43 253.94 L 642.59 214.45 L 644.75 280.26 L 646.90 300.00 L 649.06 300.00 L 651.22 253.94 L 653.38 201.29 L 655.54 240.77 L 657.70 234.19 L 659.86 293.42 L 662.02 300.00 L 664.18 293.42 L 666.33 227.61 L 668.49 286.84 L 670.65 227.61 L 672.81 260.52 L 674.97 214.45 L 677.13 300.00 L 679.29 300.00 L 681.45 221.03 L 683.61 214.45 L 685.76 234.19 L 687.92 280.26 L 690.08 300.00 L 692.24 300.00 L 694.40 300.00 L 696.56 194.71 L 698.72 267.10 L 700.88 267.10 L 703.04 253.94 L 705.19 221.03 L 707.35 300.00 L 709.51 300.00 L 711.67 300.00 L 713.83 221.03 L 715.99 253.94 L 718.15 253.94 L 720.31 168.39 L 722.47 300.00 L 724.62 300.00 L 726.78 286.84 L 728.94 300.00 L 731.10 300.00 L 733.26 300.00 L 735.42 300.00 L 737.58 300.00 L 739.74 300.00 L 741.90 300.00 L 744.05 253.94 L 746.21 273.68 L 748.37 293.42 L 750.53 286.84 L 752.69 300.00 L 754.85 300.00 L 757.01 280.26 L 759.17 293.42 L 761.33 280.26 L 763.48 293.42 L 765.64 293.42 L 767.80 300.00 L 769.96 300.00 L 772.12 300.00 L 774.28 260.52 L 776.44 267.10 L 778.60 286.84 L 780.76 286.84 L 782.92 286.84 L 785.07 300.00 L 787.23 300.00 L 789.39 286.84 L 791.55 280.26 L 793.71 280.26 L 795.87 253.94 L 798.03 300.00 L 800.19 300.00 L 802.35 221.03 L 804.50 227.61 L 806.66 267.10 L 808.82 280.26 L 810.98 280.26 L 813.14 300.00 L 815.30 300.00 L 817.46 234.19 L 819.62 273.68 L 821.78 293.42 L 823.93 234.19 L 826.09 293.42 L 828.25 300.00 L 830.41 300.00 L 832.57 227.61 L 834.73 227.61 L 836.89 194.71 L 839.05 260.52 L 841.21 267.10 L 843.36 300.00 L 845.52 253.94 L 847.68 201.29 L 849.84 201.29 L 852.00 227.61 L 852.00 300 Z" class="area"/>

  <!-- line (stroke-dasharray set to exact path length for clean single-dash draw) -->
  <path d="M 64.00 293.42 L 66.16 273.68 L 68.32 300.00 L 70.48 155.23 L 72.64 300.00 L 74.79 293.42 L 76.95 280.26 L 79.11 194.71 L 81.27 286.84 L 83.43 174.97 L 85.59 161.81 L 87.75 227.61 L 89.91 247.35 L 92.07 214.45 L 94.22 174.97 L 96.38 260.52 L 98.54 234.19 L 100.70 234.19 L 102.86 300.00 L 105.02 300.00 L 107.18 293.42 L 109.34 260.52 L 111.50 280.26 L 113.65 260.52 L 115.81 253.94 L 117.97 300.00 L 120.13 286.84 L 122.29 260.52 L 124.45 260.52 L 126.61 280.26 L 128.77 247.35 L 130.93 221.03 L 133.08 300.00 L 135.24 300.00 L 137.40 286.84 L 139.56 227.61 L 141.72 267.10 L 143.88 273.68 L 146.04 273.68 L 148.20 300.00 L 150.36 300.00 L 152.52 286.84 L 154.67 267.10 L 156.83 221.03 L 158.99 273.68 L 161.15 234.19 L 163.31 300.00 L 165.47 300.00 L 167.63 273.68 L 169.79 207.87 L 171.95 273.68 L 174.10 286.84 L 176.26 267.10 L 178.42 300.00 L 180.58 300.00 L 182.74 273.68 L 184.90 240.77 L 187.06 286.84 L 189.22 293.42 L 191.38 280.26 L 193.53 300.00 L 195.69 300.00 L 197.85 273.68 L 200.01 280.26 L 202.17 253.94 L 204.33 240.77 L 206.49 253.94 L 208.65 300.00 L 210.81 300.00 L 212.96 286.84 L 215.12 253.94 L 217.28 260.52 L 219.44 280.26 L 221.60 168.39 L 223.76 300.00 L 225.92 300.00 L 228.08 300.00 L 230.24 300.00 L 232.39 300.00 L 234.55 300.00 L 236.71 300.00 L 238.87 300.00 L 241.03 300.00 L 243.19 300.00 L 245.35 300.00 L 247.51 300.00 L 249.67 247.35 L 251.82 267.10 L 253.98 300.00 L 256.14 300.00 L 258.30 293.42 L 260.46 293.42 L 262.62 286.84 L 264.78 273.68 L 266.94 280.26 L 269.10 300.00 L 271.25 300.00 L 273.41 286.84 L 275.57 253.94 L 277.73 300.00 L 279.89 300.00 L 282.05 273.68 L 284.21 300.00 L 286.37 300.00 L 288.53 194.71 L 290.68 221.03 L 292.84 267.10 L 295.00 280.26 L 297.16 273.68 L 299.32 300.00 L 301.48 300.00 L 303.64 267.10 L 305.80 280.26 L 307.96 286.84 L 310.12 267.10 L 312.27 267.10 L 314.43 300.00 L 316.59 300.00 L 318.75 273.68 L 320.91 267.10 L 323.07 240.77 L 325.23 293.42 L 327.39 286.84 L 329.55 300.00 L 331.70 300.00 L 333.86 280.26 L 336.02 214.45 L 338.18 234.19 L 340.34 267.10 L 342.50 273.68 L 344.66 300.00 L 346.82 300.00 L 348.98 300.00 L 351.13 227.61 L 353.29 247.35 L 355.45 155.23 L 357.61 234.19 L 359.77 300.00 L 361.93 300.00 L 364.09 293.42 L 366.25 201.29 L 368.41 96.00 L 370.56 300.00 L 372.72 286.84 L 374.88 300.00 L 377.04 300.00 L 379.20 300.00 L 381.36 300.00 L 383.52 300.00 L 385.68 300.00 L 387.84 300.00 L 389.99 300.00 L 392.15 300.00 L 394.31 240.77 L 396.47 260.52 L 398.63 188.13 L 400.79 280.26 L 402.95 240.77 L 405.11 300.00 L 407.27 300.00 L 409.42 286.84 L 411.58 273.68 L 413.74 300.00 L 415.90 247.35 L 418.06 280.26 L 420.22 300.00 L 422.38 300.00 L 424.54 227.61 L 426.70 260.52 L 428.85 247.35 L 431.01 247.35 L 433.17 181.55 L 435.33 300.00 L 437.49 300.00 L 439.65 253.94 L 441.81 260.52 L 443.97 240.77 L 446.13 260.52 L 448.28 155.23 L 450.44 300.00 L 452.60 300.00 L 454.76 227.61 L 456.92 214.45 L 459.08 221.03 L 461.24 273.68 L 463.40 300.00 L 465.56 300.00 L 467.72 300.00 L 469.87 300.00 L 472.03 300.00 L 474.19 300.00 L 476.35 293.42 L 478.51 300.00 L 480.67 300.00 L 482.83 300.00 L 484.99 207.87 L 487.15 214.45 L 489.30 260.52 L 491.46 280.26 L 493.62 253.94 L 495.78 300.00 L 497.94 300.00 L 500.10 280.26 L 502.26 260.52 L 504.42 293.42 L 506.58 280.26 L 508.73 300.00 L 510.89 300.00 L 513.05 300.00 L 515.21 273.68 L 517.37 227.61 L 519.53 293.42 L 521.69 273.68 L 523.85 300.00 L 526.01 300.00 L 528.16 293.42 L 530.32 293.42 L 532.48 280.26 L 534.64 273.68 L 536.80 188.13 L 538.96 260.52 L 541.12 300.00 L 543.28 300.00 L 545.44 300.00 L 547.59 227.61 L 549.75 280.26 L 551.91 280.26 L 554.07 240.77 L 556.23 300.00 L 558.39 300.00 L 560.55 247.35 L 562.71 207.87 L 564.87 214.45 L 567.02 253.94 L 569.18 253.94 L 571.34 300.00 L 573.50 300.00 L 575.66 260.52 L 577.82 267.10 L 579.98 273.68 L 582.14 293.42 L 584.30 286.84 L 586.45 300.00 L 588.61 300.00 L 590.77 247.35 L 592.93 260.52 L 595.09 280.26 L 597.25 273.68 L 599.41 293.42 L 601.57 300.00 L 603.73 300.00 L 605.88 253.94 L 608.04 227.61 L 610.20 300.00 L 612.36 300.00 L 614.52 273.68 L 616.68 300.00 L 618.84 300.00 L 621.00 280.26 L 623.16 273.68 L 625.32 293.42 L 627.47 293.42 L 629.63 300.00 L 631.79 300.00 L 633.95 300.00 L 636.11 240.77 L 638.27 300.00 L 640.43 253.94 L 642.59 214.45 L 644.75 280.26 L 646.90 300.00 L 649.06 300.00 L 651.22 253.94 L 653.38 201.29 L 655.54 240.77 L 657.70 234.19 L 659.86 293.42 L 662.02 300.00 L 664.18 293.42 L 666.33 227.61 L 668.49 286.84 L 670.65 227.61 L 672.81 260.52 L 674.97 214.45 L 677.13 300.00 L 679.29 300.00 L 681.45 221.03 L 683.61 214.45 L 685.76 234.19 L 687.92 280.26 L 690.08 300.00 L 692.24 300.00 L 694.40 300.00 L 696.56 194.71 L 698.72 267.10 L 700.88 267.10 L 703.04 253.94 L 705.19 221.03 L 707.35 300.00 L 709.51 300.00 L 711.67 300.00 L 713.83 221.03 L 715.99 253.94 L 718.15 253.94 L 720.31 168.39 L 722.47 300.00 L 724.62 300.00 L 726.78 286.84 L 728.94 300.00 L 731.10 300.00 L 733.26 300.00 L 735.42 300.00 L 737.58 300.00 L 739.74 300.00 L 741.90 300.00 L 744.05 253.94 L 746.21 273.68 L 748.37 293.42 L 750.53 286.84 L 752.69 300.00 L 754.85 300.00 L 757.01 280.26 L 759.17 293.42 L 761.33 280.26 L 763.48 293.42 L 765.64 293.42 L 767.80 300.00 L 769.96 300.00 L 772.12 300.00 L 774.28 260.52 L 776.44 267.10 L 778.60 286.84 L 780.76 286.84 L 782.92 286.84 L 785.07 300.00 L 787.23 300.00 L 789.39 286.84 L 791.55 280.26 L 793.71 280.26 L 795.87 253.94 L 798.03 300.00 L 800.19 300.00 L 802.35 221.03 L 804.50 227.61 L 806.66 267.10 L 808.82 280.26 L 810.98 280.26 L 813.14 300.00 L 815.30 300.00 L 817.46 234.19 L 819.62 273.68 L 821.78 293.42 L 823.93 234.19 L 826.09 293.42 L 828.25 300.00 L 830.41 300.00 L 832.57 227.61 L 834.73 227.61 L 836.89 194.71 L 839.05 260.52 L 841.21 267.10 L 843.36 300.00 L 845.52 253.94 L 847.68 201.29 L 849.84 201.29 L 852.00 227.61" class="line" stroke-dasharray="10186 10186" stroke-dashoffset="10186" />

  <!-- points -->
  <g>
    <circle cx="64.00" cy="293.42" r="2.6" class="point" fill="url(#gradLine)" /><circle cx="85.59" cy="161.81" r="2.6" class="point" fill="url(#gradLine)" /><circle cx="107.18" cy="293.42" r="2.6" class="point" fill="url(#gradLine)" /><circle cx="128.77" cy="247.35" r="2.6" class="point" fill="url(#gradLine)" /><circle cx="150.36" cy="300.00" r="2.6" class="point" fill="#bb86fc22" /><circle cx="171.95" cy="273.68" r="2.6" class="point" fill="url(#gradLine)" /><circle cx="193.53" cy="300.00" r="2.6" class="point" fill="#bb86fc22" /><circle cx="215.12" cy="253.94" r="2.6" class="point" fill="url(#gradLine)" /><circle cx="236.71" cy="300.00" r="2.6" class="point" fill="#bb86fc22" /><circle cx="258.30" cy="293.42" r="2.6" class="point" fill="url(#gradLine)" /><circle cx="279.89" cy="300.00" r="2.6" class="point" fill="#bb86fc22" /><circle cx="301.48" cy="300.00" r="2.6" class="point" fill="#bb86fc22" /><circle cx="323.07" cy="240.77" r="2.6" class="point" fill="url(#gradLine)" /><circle cx="344.66" cy="300.00" r="2.6" class="point" fill="#bb86fc22" /><circle cx="366.25" cy="201.29" r="2.6" class="point" fill="url(#gradLine)" /><circle cx="387.84" cy="300.00" r="2.6" class="point" fill="#bb86fc22" /><circle cx="409.42" cy="286.84" r="2.6" class="point" fill="url(#gradLine)" /><circle cx="431.01" cy="247.35" r="2.6" class="point" fill="url(#gradLine)" /><circle cx="452.60" cy="300.00" r="2.6" class="point" fill="#bb86fc22" /><circle cx="474.19" cy="300.00" r="2.6" class="point" fill="#bb86fc22" /><circle cx="495.78" cy="300.00" r="2.6" class="point" fill="#bb86fc22" /><circle cx="517.37" cy="227.61" r="2.6" class="point" fill="url(#gradLine)" /><circle cx="538.96" cy="260.52" r="2.6" class="point" fill="url(#gradLine)" /><circle cx="560.55" cy="247.35" r="2.6" class="point" fill="url(#gradLine)" /><circle cx="582.14" cy="293.42" r="2.6" class="point" fill="url(#gradLine)" /><circle cx="603.73" cy="300.00" r="2.6" class="point" fill="#bb86fc22" /><circle cx="625.32" cy="293.42" r="2.6" class="point" fill="url(#gradLine)" /><circle cx="646.90" cy="300.00" r="2.6" class="point" fill="#bb86fc22" /><circle cx="668.49" cy="286.84" r="2.6" class="point" fill="url(#gradLine)" /><circle cx="690.08" cy="300.00" r="2.6" class="point" fill="#bb86fc22" /><circle cx="711.67" cy="300.00" r="2.6" class="point" fill="#bb86fc22" /><circle cx="733.26" cy="300.00" r="2.6" class="point" fill="#bb86fc22" /><circle cx="754.85" cy="300.00" r="2.6" class="point" fill="#bb86fc22" /><circle cx="776.44" cy="267.10" r="2.6" class="point" fill="url(#gradLine)" /><circle cx="798.03" cy="300.00" r="2.6" class="point" fill="#bb86fc22" /><circle cx="819.62" cy="273.68" r="2.6" class="point" fill="url(#gradLine)" /><circle cx="841.21" cy="267.10" r="2.6" class="point" fill="url(#gradLine)" />
  </g>

  <!-- x-axis labels (4 evenly spaced labels) -->
  <g>
    <text class="axis-label" x="64.00" y="324.00" text-anchor="middle">Oct 2024</text><text class="axis-label" x="327.39" y="324.00" text-anchor="middle">Feb 2025</text><text class="axis-label" x="588.61" y="324.00" text-anchor="middle">Jun 2025</text><text class="axis-label" x="852.00" y="324.00" text-anchor="middle">Oct 2025</text>
  </g>

  <!-- bottom axis line -->
  <line x1="64" x2="852" y1="300.00" y2="300.00" stroke="rgba(255,255,255,0.06)" stroke-width="1" />
  <!-- Github: https://github.com/cyrus2281/github-widgets -->
</svg>