
<svg xmlns="http://www.w3.org/2000/svg" width="900" height="360" viewBox="0 0 900 360" role="img" aria-label="Contributions – Cyrus Mobini (@cyrus2281)"><!-- Created By GitHub Widgets - Authored by cyrus2281 --><!-- Github: https://github.com/cyrus2281/github-widgets --><defs><linearGradient id="gradLine" x1="0" x2="1" y1="0" y2="0"><stop offset="0%" stop-color="#79c0ff" stop-opacity="1"/><stop offset="100%" stop-color="#58a6ff" stop-opacity="1"/></linearGradient><linearGradient id="areaFade" x1="0" x2="0" y1="0" y2="1"><stop offset="0%" stop-color="#58a6ff" stop-opacity="0.20"/><stop offset="100%" stop-color="#79c0ff" stop-opacity="0.02"/></linearGradient><filter id="cardShadow" x="-50%" y="-50%" width="200%" height="200%"><feDropShadow dx="0" dy="8" stdDeviation="14" flood-color="#000" flood-opacity="0.45"/></filter><style> .card-bg { fill: transparent; } .title-main { font: 700 18px system-ui, -apple-system, "Segoe UI", Roboto, "Helvetica Neue", Arial; fill: #e6edf3; opacity: 0; animation: fadeIn 0.9s ease-out forwards; } .title-login { font-weight: 700; fill: #58a6ff; font-family: "SFMono-Regular", ui-monospace, "Roboto Mono", monospace; } .subtitle { font: 500 13px system-ui, -apple-system, "Segoe UI", Roboto, "Helvetica Neue", Arial; fill: #9198a1; opacity: 0; animation: fadeIn 0.9s ease-out forwards 0.35s; } .meta { font: 500 13px system-ui, -apple-system, "Segoe UI", Roboto, "Helvetica Neue", Arial; fill: #9198a1; opacity: 0; animation: fadeIn 0.9s ease-out forwards 0.6s; } .total-num { font: 700 15px system-ui, -apple-system, "Segoe UI", Roboto, "Helvetica Neue", Arial; fill: #e6edf3; } .axis-label { font: 400 11px system-ui, -apple-system, "Segoe UI", Roboto, "Helvetica Neue", Arial; fill: #9198a1; } .tick { font: 400 11px system-ui, -apple-system, "Segoe UI", Roboto, "Helvetica Neue", Arial; fill: #9198a1; } .grid-line { stroke: rgba(255,255,255,0.08); stroke-width: 1; } .line { fill: none; stroke: url(#gradLine); stroke-width: 2.5; stroke-linejoin: round; stroke-linecap: round; animation: drawLine 2s cubic-bezier(.22,.9,.3,1) forwards; } .area { fill: url(#areaFade); opacity: 0; animation: fadeArea 1.0s ease-out forwards 0.9s; } .point { stroke: none; opacity: 0; animation: fadeIn 0.5s ease-out forwards 1.6s; } @keyframes drawLine { from { stroke-dashoffset: 10468; } to { stroke-dashoffset: 0; } } @keyframes fadeArea { to { opacity: 0.95; } } @keyframes fadeIn { to { opacity: 1; } } </style></defs><!-- card --><rect x="6" y="6" width="888" height="348" rx="14" ry="14" class="card-bg" filter="url(#cardShadow)"/><!-- header: title --><g transform="translate(64, 42)"><text class="title-main" x="0" y="0"> Contributions – Cyrus Mobini <tspan class="title-login">(@cyrus2281)</tspan></text><text class="subtitle" x="0" y="20"> Commits: 825 · PRs: 155 · Issues: 5 · Reviews: 255 </text></g><!-- total inline at top-right --><g transform="translate(844, 44)"><text class="meta" x="0" y="0" text-anchor="end">Total: <tspan class="total-num">1247</tspan></text></g><!-- grid horizontal lines and y tick labels --><g><g><line x1="64" x2="852" y1="300.00" y2="300.00" class="grid-line" /><text class="tick" x="54" y="300.00" dy="4" text-anchor="end">0</text></g><g><line x1="64" x2="852" y1="249.00" y2="249.00" class="grid-line" /><text class="tick" x="54" y="249.00" dy="4" text-anchor="end">6</text></g><g><line x1="64" x2="852" y1="198.00" y2="198.00" class="grid-line" /><text class="tick" x="54" y="198.00" dy="4" text-anchor="end">12</text></g><g><line x1="64" x2="852" y1="147.00" y2="147.00" class="grid-line" /><text class="tick" x="54" y="147.00" dy="4" text-anchor="end">18</text></g><g><line x1="64" x2="852" y1="96.00" y2="96.00" class="grid-line" /><text class="tick" x="54" y="96.00" dy="4" text-anchor="end">24</text></g></g><!-- area under line (fades in) --><path d="M 64.00 300 L 64.00 300.00 L 66.16 283.00 L 68.32 266.00 L 70.48 300.00 L 72.64 232.00 L 74.79 274.50 L 76.95 300.00 L 79.11 300.00 L 81.27 206.50 L 83.43 249.00 L 85.59 232.00 L 87.75 232.00 L 89.91 147.00 L 92.07 300.00 L 94.22 300.00 L 96.38 240.50 L 98.54 249.00 L 100.70 223.50 L 102.86 249.00 L 105.02 113.00 L 107.18 300.00 L 109.34 300.00 L 111.50 206.50 L 113.65 189.50 L 115.81 198.00 L 117.97 266.00 L 120.13 300.00 L 122.29 300.00 L 124.45 300.00 L 126.61 300.00 L 128.77 300.00 L 130.93 300.00 L 133.08 291.50 L 135.24 300.00 L 137.40 300.00 L 139.56 300.00 L 141.72 181.00 L 143.88 189.50 L 146.04 249.00 L 148.20 274.50 L 150.36 240.50 L 152.52 300.00 L 154.67 300.00 L 156.83 274.50 L 158.99 249.00 L 161.15 291.50 L 163.31 274.50 L 165.47 300.00 L 167.63 300.00 L 169.79 300.00 L 171.95 266.00 L 174.10 206.50 L 176.26 291.50 L 178.42 266.00 L 180.58 300.00 L 182.74 300.00 L 184.90 291.50 L 187.06 291.50 L 189.22 274.50 L 191.38 266.00 L 193.53 155.50 L 195.69 249.00 L 197.85 300.00 L 200.01 300.00 L 202.17 300.00 L 204.33 206.50 L 206.49 274.50 L 208.65 274.50 L 210.81 223.50 L 212.96 300.00 L 215.12 300.00 L 217.28 232.00 L 219.44 181.00 L 221.60 189.50 L 223.76 240.50 L 225.92 240.50 L 228.08 300.00 L 230.24 300.00 L 232.39 249.00 L 234.55 257.50 L 236.71 266.00 L 238.87 291.50 L 241.03 283.00 L 243.19 300.00 L 245.35 300.00 L 247.51 232.00 L 249.67 249.00 L 251.82 274.50 L 253.98 266.00 L 256.14 291.50 L 258.30 300.00 L 260.46 300.00 L 262.62 240.50 L 264.78 206.50 L 266.94 300.00 L 269.10 300.00 L 271.25 266.00 L 273.41 300.00 L 275.57 300.00 L 277.73 274.50 L 279.89 266.00 L 282.05 291.50 L 284.21 291.50 L 286.37 300.00 L 288.53 300.00 L 290.68 300.00 L 292.84 223.50 L 295.00 300.00 L 297.16 240.50 L 299.32 189.50 L 301.48 274.50 L 303.64 300.00 L 305.80 300.00 L 307.96 240.50 L 310.12 172.50 L 312.27 223.50 L 314.43 215.00 L 316.59 291.50 L 318.75 300.00 L 320.91 291.50 L 323.07 206.50 L 325.23 283.00 L 327.39 206.50 L 329.55 249.00 L 331.70 189.50 L 333.86 300.00 L 336.02 300.00 L 338.18 198.00 L 340.34 189.50 L 342.50 215.00 L 344.66 274.50 L 346.82 300.00 L 348.98 300.00 L 351.13 300.00 L 353.29 164.00 L 355.45 257.50 L 357.61 257.50 L 359.77 240.50 L 361.93 198.00 L 364.09 300.00 L 366.25 300.00 L 368.41 300.00 L 370.56 198.00 L 372.72 240.50 L 374.88 240.50 L 377.04 130.00 L 379.20 300.00 L 381.36 300.00 L 383.52 283.00 L 385.68 300.00 L 387.84 300.00 L 389.99 300.00 L 392.15 300.00 L 394.31 300.00 L 396.47 300.00 L 398.63 300.00 L 400.79 240.50 L 402.95 266.00 L 405.11 291.50 L 407.27 283.00 L 409.42 300.00 L 411.58 300.00 L 413.74 274.50 L 415.90 291.50 L 418.06 274.50 L 420.22 291.50 L 422.38 291.50 L 424.54 300.00 L 426.70 300.00 L 428.85 300.00 L 431.01 249.00 L 433.17 257.50 L 435.33 283.00 L 437.49 283.00 L 439.65 283.00 L 441.81 300.00 L 443.97 300.00 L 446.13 283.00 L 448.28 274.50 L 450.44 274.50 L 452.60 240.50 L 454.76 300.00 L 456.92 300.00 L 459.08 198.00 L 461.24 206.50 L 463.40 257.50 L 465.56 274.50 L 467.72 274.50 L 469.87 300.00 L 472.03 300.00 L 474.19 215.00 L 476.35 266.00 L 478.51 291.50 L 480.67 215.00 L 482.83 291.50 L 484.99 300.00 L 487.15 300.00 L 489.30 206.50 L 491.46 206.50 L 493.62 164.00 L 495.78 249.00 L 497.94 257.50 L 500.10 300.00 L 502.26 206.50 L 504.42 138.50 L 506.58 155.50 L 508.73 96.00 L 510.89 274.50 L 513.05 266.00 L 515.21 300.00 L 517.37 300.00 L 519.53 300.00 L 521.69 257.50 L 523.85 206.50 L 526.01 249.00 L 528.16 232.00 L 530.32 300.00 L 532.48 300.00 L 534.64 257.50 L 536.80 249.00 L 538.96 257.50 L 541.12 274.50 L 543.28 300.00 L 545.44 300.00 L 547.59 300.00 L 549.75 291.50 L 551.91 257.50 L 554.07 274.50 L 556.23 283.00 L 558.39 291.50 L 560.55 300.00 L 562.71 300.00 L 564.87 257.50 L 567.02 198.00 L 569.18 240.50 L 571.34 291.50 L 573.50 291.50 L 575.66 300.00 L 577.82 300.00 L 579.98 283.00 L 582.14 266.00 L 584.30 283.00 L 586.45 249.00 L 588.61 274.50 L 590.77 300.00 L 592.93 300.00 L 595.09 249.00 L 597.25 240.50 L 599.41 283.00 L 601.57 283.00 L 603.73 291.50 L 605.88 300.00 L 608.04 300.00 L 610.20 283.00 L 612.36 291.50 L 614.52 291.50 L 616.68 283.00 L 618.84 300.00 L 621.00 300.00 L 623.16 300.00 L 625.32 300.00 L 627.47 283.00 L 629.63 283.00 L 631.79 283.00 L 633.95 300.00 L 636.11 300.00 L 638.27 300.00 L 640.43 300.00 L 642.59 274.50 L 644.75 257.50 L 646.90 300.00 L 649.06 300.00 L 651.22 300.00 L 653.38 300.00 L 655.54 283.00 L 657.70 291.50 L 659.86 300.00 L 662.02 291.50 L 664.18 274.50 L 666.33 300.00 L 668.49 300.00 L 670.65 300.00 L 672.81 300.00 L 674.97 300.00 L 677.13 300.00 L 679.29 300.00 L 681.45 300.00 L 683.61 300.00 L 685.76 300.00 L 687.92 300.00 L 690.08 300.00 L 692.24 300.00 L 694.40 300.00 L 696.56 300.00 L 698.72 300.00 L 700.88 274.50 L 703.04 257.50 L 705.19 283.00 L 707.35 300.00 L 709.51 300.00 L 711.67 300.00 L 713.83 300.00 L 715.99 300.00 L 718.15 300.00 L 720.31 291.50 L 722.47 300.00 L 724.62 291.50 L 726.78 300.00 L 728.94 300.00 L 731.10 274.50 L 733.26 232.00 L 735.42 283.00 L 737.58 291.50 L 739.74 223.50 L 741.90 300.00 L 744.05 300.00 L 746.21 300.00 L 748.37 257.50 L 750.53 291.50 L 752.69 291.50 L 754.85 291.50 L 757.01 300.00 L 759.17 300.00 L 761.33 291.50 L 763.48 206.50 L 765.64 206.50 L 767.80 274.50 L 769.96 291.50 L 772.12 300.00 L 774.28 300.00 L 776.44 300.00 L 778.60 283.00 L 780.76 266.00 L 782.92 274.50 L 785.07 291.50 L 787.23 300.00 L 789.39 300.00 L 791.55 300.00 L 793.71 291.50 L 795.87 300.00 L 798.03 215.00 L 800.19 291.50 L 802.35 300.00 L 804.50 300.00 L 806.66 274.50 L 808.82 164.00 L 810.98 266.00 L 813.14 257.50 L 815.30 274.50 L 817.46 249.00 L 819.62 291.50 L 821.78 283.00 L 823.93 206.50 L 826.09 291.50 L 828.25 240.50 L 830.41 181.00 L 832.57 300.00 L 834.73 283.00 L 836.89 300.00 L 839.05 300.00 L 841.21 291.50 L 843.36 291.50 L 845.52 283.00 L 847.68 300.00 L 849.84 198.00 L 852.00 206.50 L 852.00 300 Z" class="area"/><!-- line (stroke-dasharray set to exact path length for clean single-dash draw) --><path d="M 64.00 300.00 L 66.16 283.00 L 68.32 266.00 L 70.48 300.00 L 72.64 232.00 L 74.79 274.50 L 76.95 300.00 L 79.11 300.00 L 81.27 206.50 L 83.43 249.00 L 85.59 232.00 L 87.75 232.00 L 89.91 147.00 L 92.07 300.00 L 94.22 300.00 L 96.38 240.50 L 98.54 249.00 L 100.70 223.50 L 102.86 249.00 L 105.02 113.00 L 107.18 300.00 L 109.34 300.00 L 111.50 206.50 L 113.65 189.50 L 115.81 198.00 L 117.97 266.00 L 120.13 300.00 L 122.29 300.00 L 124.45 300.00 L 126.61 300.00 L 128.77 300.00 L 130.93 300.00 L 133.08 291.50 L 135.24 300.00 L 137.40 300.00 L 139.56 300.00 L 141.72 181.00 L 143.88 189.50 L 146.04 249.00 L 148.20 274.50 L 150.36 240.50 L 152.52 300.00 L 154.67 300.00 L 156.83 274.50 L 158.99 249.00 L 161.15 291.50 L 163.31 274.50 L 165.47 300.00 L 167.63 300.00 L 169.79 300.00 L 171.95 266.00 L 174.10 206.50 L 176.26 291.50 L 178.42 266.00 L 180.58 300.00 L 182.74 300.00 L 184.90 291.50 L 187.06 291.50 L 189.22 274.50 L 191.38 266.00 L 193.53 155.50 L 195.69 249.00 L 197.85 300.00 L 200.01 300.00 L 202.17 300.00 L 204.33 206.50 L 206.49 274.50 L 208.65 274.50 L 210.81 223.50 L 212.96 300.00 L 215.12 300.00 L 217.28 232.00 L 219.44 181.00 L 221.60 189.50 L 223.76 240.50 L 225.92 240.50 L 228.08 300.00 L 230.24 300.00 L 232.39 249.00 L 234.55 257.50 L 236.71 266.00 L 238.87 291.50 L 241.03 283.00 L 243.19 300.00 L 245.35 300.00 L 247.51 232.00 L 249.67 249.00 L 251.82 274.50 L 253.98 266.00 L 256.14 291.50 L 258.30 300.00 L 260.46 300.00 L 262.62 240.50 L 264.78 206.50 L 266.94 300.00 L 269.10 300.00 L 271.25 266.00 L 273.41 300.00 L 275.57 300.00 L 277.73 274.50 L 279.89 266.00 L 282.05 291.50 L 284.21 291.50 L 286.37 300.00 L 288.53 300.00 L 290.68 300.00 L 292.84 223.50 L 295.00 300.00 L 297.16 240.50 L 299.32 189.50 L 301.48 274.50 L 303.64 300.00 L 305.80 300.00 L 307.96 240.50 L 310.12 172.50 L 312.27 223.50 L 314.43 215.00 L 316.59 291.50 L 318.75 300.00 L 320.91 291.50 L 323.07 206.50 L 325.23 283.00 L 327.39 206.50 L 329.55 249.00 L 331.70 189.50 L 333.86 300.00 L 336.02 300.00 L 338.18 198.00 L 340.34 189.50 L 342.50 215.00 L 344.66 274.50 L 346.82 300.00 L 348.98 300.00 L 351.13 300.00 L 353.29 164.00 L 355.45 257.50 L 357.61 257.50 L 359.77 240.50 L 361.93 198.00 L 364.09 300.00 L 366.25 300.00 L 368.41 300.00 L 370.56 198.00 L 372.72 240.50 L 374.88 240.50 L 377.04 130.00 L 379.20 300.00 L 381.36 300.00 L 383.52 283.00 L 385.68 300.00 L 387.84 300.00 L 389.99 300.00 L 392.15 300.00 L 394.31 300.00 L 396.47 300.00 L 398.63 300.00 L 400.79 240.50 L 402.95 266.00 L 405.11 291.50 L 407.27 283.00 L 409.42 300.00 L 411.58 300.00 L 413.74 274.50 L 415.90 291.50 L 418.06 274.50 L 420.22 291.50 L 422.38 291.50 L 424.54 300.00 L 426.70 300.00 L 428.85 300.00 L 431.01 249.00 L 433.17 257.50 L 435.33 283.00 L 437.49 283.00 L 439.65 283.00 L 441.81 300.00 L 443.97 300.00 L 446.13 283.00 L 448.28 274.50 L 450.44 274.50 L 452.60 240.50 L 454.76 300.00 L 456.92 300.00 L 459.08 198.00 L 461.24 206.50 L 463.40 257.50 L 465.56 274.50 L 467.72 274.50 L 469.87 300.00 L 472.03 300.00 L 474.19 215.00 L 476.35 266.00 L 478.51 291.50 L 480.67 215.00 L 482.83 291.50 L 484.99 300.00 L 487.15 300.00 L 489.30 206.50 L 491.46 206.50 L 493.62 164.00 L 495.78 249.00 L 497.94 257.50 L 500.10 300.00 L 502.26 206.50 L 504.42 138.50 L 506.58 155.50 L 508.73 96.00 L 510.89 274.50 L 513.05 266.00 L 515.21 300.00 L 517.37 300.00 L 519.53 300.00 L 521.69 257.50 L 523.85 206.50 L 526.01 249.00 L 528.16 232.00 L 530.32 300.00 L 532.48 300.00 L 534.64 257.50 L 536.80 249.00 L 538.96 257.50 L 541.12 274.50 L 543.28 300.00 L 545.44 300.00 L 547.59 300.00 L 549.75 291.50 L 551.91 257.50 L 554.07 274.50 L 556.23 283.00 L 558.39 291.50 L 560.55 300.00 L 562.71 300.00 L 564.87 257.50 L 567.02 198.00 L 569.18 240.50 L 571.34 291.50 L 573.50 291.50 L 575.66 300.00 L 577.82 300.00 L 579.98 283.00 L 582.14 266.00 L 584.30 283.00 L 586.45 249.00 L 588.61 274.50 L 590.77 300.00 L 592.93 300.00 L 595.09 249.00 L 597.25 240.50 L 599.41 283.00 L 601.57 283.00 L 603.73 291.50 L 605.88 300.00 L 608.04 300.00 L 610.20 283.00 L 612.36 291.50 L 614.52 291.50 L 616.68 283.00 L 618.84 300.00 L 621.00 300.00 L 623.16 300.00 L 625.32 300.00 L 627.47 283.00 L 629.63 283.00 L 631.79 283.00 L 633.95 300.00 L 636.11 300.00 L 638.27 300.00 L 640.43 300.00 L 642.59 274.50 L 644.75 257.50 L 646.90 300.00 L 649.06 300.00 L 651.22 300.00 L 653.38 300.00 L 655.54 283.00 L 657.70 291.50 L 659.86 300.00 L 662.02 291.50 L 664.18 274.50 L 666.33 300.00 L 668.49 300.00 L 670.65 300.00 L 672.81 300.00 L 674.97 300.00 L 677.13 300.00 L 679.29 300.00 L 681.45 300.00 L 683.61 300.00 L 685.76 300.00 L 687.92 300.00 L 690.08 300.00 L 692.24 300.00 L 694.40 300.00 L 696.56 300.00 L 698.72 300.00 L 700.88 274.50 L 703.04 257.50 L 705.19 283.00 L 707.35 300.00 L 709.51 300.00 L 711.67 300.00 L 713.83 300.00 L 715.99 300.00 L 718.15 300.00 L 720.31 291.50 L 722.47 300.00 L 724.62 291.50 L 726.78 300.00 L 728.94 300.00 L 731.10 274.50 L 733.26 232.00 L 735.42 283.00 L 737.58 291.50 L 739.74 223.50 L 741.90 300.00 L 744.05 300.00 L 746.21 300.00 L 748.37 257.50 L 750.53 291.50 L 752.69 291.50 L 754.85 291.50 L 757.01 300.00 L 759.17 300.00 L 761.33 291.50 L 763.48 206.50 L 765.64 206.50 L 767.80 274.50 L 769.96 291.50 L 772.12 300.00 L 774.28 300.00 L 776.44 300.00 L 778.60 283.00 L 780.76 266.00 L 782.92 274.50 L 785.07 291.50 L 787.23 300.00 L 789.39 300.00 L 791.55 300.00 L 793.71 291.50 L 795.87 300.00 L 798.03 215.00 L 800.19 291.50 L 802.35 300.00 L 804.50 300.00 L 806.66 274.50 L 808.82 164.00 L 810.98 266.00 L 813.14 257.50 L 815.30 274.50 L 817.46 249.00 L 819.62 291.50 L 821.78 283.00 L 823.93 206.50 L 826.09 291.50 L 828.25 240.50 L 830.41 181.00 L 832.57 300.00 L 834.73 283.00 L 836.89 300.00 L 839.05 300.00 L 841.21 291.50 L 843.36 291.50 L 845.52 283.00 L 847.68 300.00 L 849.84 198.00 L 852.00 206.50" class="line" stroke-dasharray="10468 10468" stroke-dashoffset="10468" /><!-- points --><g><circle cx="64.00" cy="300.00" r="2.6" class="point" fill="rgba(255,255,255,0.05)" /><circle cx="85.59" cy="232.00" r="2.6" class="point" fill="url(#gradLine)" /><circle cx="107.18" cy="300.00" r="2.6" class="point" fill="rgba(255,255,255,0.05)" /><circle cx="128.77" cy="300.00" r="2.6" class="point" fill="rgba(255,255,255,0.05)" /><circle cx="150.36" cy="240.50" r="2.6" class="point" fill="url(#gradLine)" /><circle cx="171.95" cy="266.00" r="2.6" class="point" fill="url(#gradLine)" /><circle cx="193.53" cy="155.50" r="2.6" class="point" fill="url(#gradLine)" /><circle cx="215.12" cy="300.00" r="2.6" class="point" fill="rgba(255,255,255,0.05)" /><circle cx="236.71" cy="266.00" r="2.6" class="point" fill="url(#gradLine)" /><circle cx="258.30" cy="300.00" r="2.6" class="point" fill="rgba(255,255,255,0.05)" /><circle cx="279.89" cy="266.00" r="2.6" class="point" fill="url(#gradLine)" /><circle cx="301.48" cy="274.50" r="2.6" class="point" fill="url(#gradLine)" /><circle cx="323.07" cy="206.50" r="2.6" class="point" fill="url(#gradLine)" /><circle cx="344.66" cy="274.50" r="2.6" class="point" fill="url(#gradLine)" /><circle cx="366.25" cy="300.00" r="2.6" class="point" fill="rgba(255,255,255,0.05)" /><circle cx="387.84" cy="300.00" r="2.6" class="point" fill="rgba(255,255,255,0.05)" /><circle cx="409.42" cy="300.00" r="2.6" class="point" fill="rgba(255,255,255,0.05)" /><circle cx="431.01" cy="249.00" r="2.6" class="point" fill="url(#gradLine)" /><circle cx="452.60" cy="240.50" r="2.6" class="point" fill="url(#gradLine)" /><circle cx="474.19" cy="215.00" r="2.6" class="point" fill="url(#gradLine)" /><circle cx="495.78" cy="249.00" r="2.6" class="point" fill="url(#gradLine)" /><circle cx="517.37" cy="300.00" r="2.6" class="point" fill="rgba(255,255,255,0.05)" /><circle cx="538.96" cy="257.50" r="2.6" class="point" fill="url(#gradLine)" /><circle cx="560.55" cy="300.00" r="2.6" class="point" fill="rgba(255,255,255,0.05)" /><circle cx="582.14" cy="266.00" r="2.6" class="point" fill="url(#gradLine)" /><circle cx="603.73" cy="291.50" r="2.6" class="point" fill="url(#gradLine)" /><circle cx="625.32" cy="300.00" r="2.6" class="point" fill="rgba(255,255,255,0.05)" /><circle cx="646.90" cy="300.00" r="2.6" class="point" fill="rgba(255,255,255,0.05)" /><circle cx="668.49" cy="300.00" r="2.6" class="point" fill="rgba(255,255,255,0.05)" /><circle cx="690.08" cy="300.00" r="2.6" class="point" fill="rgba(255,255,255,0.05)" /><circle cx="711.67" cy="300.00" r="2.6" class="point" fill="rgba(255,255,255,0.05)" /><circle cx="733.26" cy="232.00" r="2.6" class="point" fill="url(#gradLine)" /><circle cx="754.85" cy="291.50" r="2.6" class="point" fill="url(#gradLine)" /><circle cx="776.44" cy="300.00" r="2.6" class="point" fill="rgba(255,255,255,0.05)" /><circle cx="798.03" cy="215.00" r="2.6" class="point" fill="url(#gradLine)" /><circle cx="819.62" cy="291.50" r="2.6" class="point" fill="url(#gradLine)" /><circle cx="841.21" cy="291.50" r="2.6" class="point" fill="url(#gradLine)" /></g><!-- x-axis labels (4 evenly spaced labels) --><g><text class="axis-label" x="64.00" y="324.00" text-anchor="middle">Mar 2025</text><text class="axis-label" x="327.39" y="324.00" text-anchor="middle">Jul 2025</text><text class="axis-label" x="588.61" y="324.00" text-anchor="middle">Nov 2025</text><text class="axis-label" x="852.00" y="324.00" text-anchor="middle">Mar 2026</text></g><!-- bottom axis line --><line x1="64" x2="852" y1="300.00" y2="300.00" stroke="rgba(255,255,255,0.08)" stroke-width="1" /><!-- Github: https://github.com/cyrus2281/github-widgets --><!-- Generated: 2026-03-16T16:40:56.757Z --></svg>